<svg width="25" height="24" viewBox="0 0 25 24" fill="none" xmlns="http://www.w3.org/2000/svg">
<path d="M16.6946 4.5H2C1.58545 4.5 1.25 4.16455 1.25 3.75C1.25 3.33545 1.58545 3 2 3H16.6946C17.1091 3 17.4446 3.33545 17.4446 3.75C17.4446 4.16455 17.1091 4.5 16.6946 4.5Z" fill="#333333"/>
<path d="M9.0166 8.625H2C1.58545 8.625 1.25 8.28955 1.25 7.875C1.25 7.46045 1.58545 7.125 2 7.125H9.0166C9.43115 7.125 9.7666 7.46045 9.7666 7.875C9.7666 8.28955 9.43115 8.625 9.0166 8.625Z" fill="#333333"/>
<path d="M9.0166 12.75H2C1.58545 12.75 1.25 12.4146 1.25 12C1.25 11.5854 1.58545 11.25 2 11.25H9.0166C9.43115 11.25 9.7666 11.5854 9.7666 12C9.7666 12.4146 9.43115 12.75 9.0166 12.75Z" fill="#333333"/>
<path d="M9.0166 16.875H2C1.58545 16.875 1.25 16.5396 1.25 16.125C1.25 15.7104 1.58545 15.375 2 15.375H9.0166C9.43115 15.375 9.7666 15.7104 9.7666 16.125C9.7666 16.5396 9.43115 16.875 9.0166 16.875Z" fill="#333333"/>
<path d="M17.2886 21H2C1.58545 21 1.25 20.6646 1.25 20.25C1.25 19.8354 1.58545 19.5 2 19.5H17.2886C17.7031 19.5 18.0386 19.8354 18.0386 20.25C18.0386 20.6646 17.7031 21 17.2886 21Z" fill="#333333"/>
<path d="M23.0002 18.3499C22.8083 18.3499 22.6165 18.2766 22.47 18.1301L19.626 15.2861C19.333 14.9932 19.333 14.5186 19.626 14.2256C19.9189 13.9326 20.3936 13.9326 20.6865 14.2256L23.5305 17.0696C23.8235 17.3625 23.8235 17.8372 23.5305 18.1301C23.384 18.2766 23.1921 18.3499 23.0002 18.3499Z" fill="#166EB4"/>
<path d="M16.6946 16.9365C15.2488 16.9373 13.8037 16.3865 12.7036 15.2864C11.6372 14.22 11.0498 12.8027 11.0498 11.2947C11.0498 9.78662 11.6372 8.36938 12.7036 7.30371C13.7693 6.2373 15.1865 5.6499 16.6946 5.6499C18.2026 5.6499 19.6199 6.2373 20.6863 7.30371C21.7527 8.36938 22.3401 9.78662 22.3401 11.2947C22.3401 12.8027 21.7527 14.22 20.6863 15.2864C19.5854 16.3865 18.1396 16.9365 16.6946 16.9365ZM16.6946 7.1499C15.5879 7.1499 14.5471 7.5813 13.7642 8.36426C12.9812 9.14722 12.5498 10.188 12.5498 11.2947C12.5498 12.4021 12.9812 13.4429 13.7642 14.2258C15.3799 15.8416 18.0085 15.8416 19.6257 14.2258C20.4087 13.4429 20.8401 12.4021 20.8401 11.2947C20.8401 10.188 20.4087 9.14722 19.6257 8.36426C18.8428 7.5813 17.802 7.1499 16.6946 7.1499Z" fill="#166EB4"/>
</svg>
