<svg width="25" height="24" viewBox="0 0 25 24" fill="none" xmlns="http://www.w3.org/2000/svg">
<g clip-path="url(#clip0_2938_432)">
<path d="M24.4136 18.8364L23.0197 14.7797C23.6916 13.4062 24.0467 11.8786 24.0491 10.3416C24.0532 7.66911 23.0192 5.14222 21.1376 3.22643C19.2555 1.31027 16.7476 0.231628 14.0757 0.1893C11.3052 0.145518 8.70099 1.19936 6.74316 3.15715C4.85531 5.04495 3.80822 7.53369 3.77507 10.1932C1.91442 11.5941 0.816179 13.7782 0.819788 16.1112C0.821522 17.2029 1.06724 18.2881 1.53285 19.2694L0.572709 22.0636C0.407662 22.5439 0.528225 23.0654 0.887382 23.4246C1.14013 23.6774 1.47337 23.812 1.81607 23.812C1.96026 23.812 2.10613 23.7881 2.2484 23.7393L5.04258 22.7791C6.02391 23.2447 7.10911 23.4904 8.20083 23.4922C8.20477 23.4922 8.20852 23.4922 8.21246 23.4922C10.5801 23.4921 12.7809 22.3655 14.1767 20.4593C15.6292 20.421 17.0664 20.0694 18.3656 19.4338L22.4224 20.8278C22.5914 20.8859 22.7647 20.9142 22.9361 20.9142C23.3433 20.9142 23.7393 20.7542 24.0397 20.4538C24.4665 20.027 24.6097 19.4072 24.4136 18.8364ZM8.21236 22.0636C8.20932 22.0636 8.20608 22.0636 8.20304 22.0636C7.23675 22.0622 6.27717 21.8239 5.42822 21.3748C5.25366 21.2825 5.04872 21.2665 4.86206 21.3306L1.99692 22.3151L2.98143 19.45C3.04556 19.2633 3.02962 19.0584 2.93728 18.8839C2.48812 18.0349 2.2499 17.0753 2.2484 16.109C2.24601 14.5547 2.85065 13.0815 3.90801 11.9783C4.25339 14.0837 5.25684 16.0239 6.81225 17.5516C8.35618 19.0681 10.2969 20.0336 12.3909 20.3493C11.2852 21.4391 9.79477 22.0636 8.21236 22.0636ZM23.0295 19.4436C22.9888 19.4843 22.9407 19.4953 22.8865 19.4767L18.5436 17.9844C18.4682 17.9584 18.3897 17.9456 18.3115 17.9456C18.1962 17.9456 18.0814 17.9735 17.9775 18.0285C16.7375 18.6845 15.3363 19.0324 13.9253 19.0345C13.9206 19.0345 13.9164 19.0345 13.9118 19.0345C9.1838 19.0345 5.2785 15.1939 5.20359 10.467C5.16586 8.08649 6.07139 5.84919 7.75332 4.16726C9.43524 2.48534 11.6729 1.58013 14.0531 1.61763C18.7845 1.69268 22.6278 5.6052 22.6205 10.3394C22.6183 11.7504 22.2704 13.1516 21.6145 14.3915C21.5222 14.566 21.5062 14.771 21.5704 14.9577L23.0626 19.3006C23.0812 19.3549 23.0701 19.4031 23.0295 19.4436Z" fill="#333333"/>
<path d="M18.1668 6.53955H9.65618C9.26168 6.53955 8.94189 6.85938 8.94189 7.25383C8.94189 7.64833 9.26172 7.96812 9.65618 7.96812H18.1668C18.5613 7.96812 18.8811 7.64829 18.8811 7.25383C18.8811 6.85938 18.5613 6.53955 18.1668 6.53955Z" fill="#166EB4"/>
<path d="M18.1668 9.47754H9.65618C9.26168 9.47754 8.94189 9.79737 8.94189 10.1918C8.94189 10.5863 9.26172 10.9061 9.65618 10.9061H18.1668C18.5613 10.9061 18.8811 10.5863 18.8811 10.1918C18.8811 9.79737 18.5613 9.47754 18.1668 9.47754Z" fill="#166EB4"/>
<path d="M14.8909 12.415H9.65618C9.26168 12.415 8.94189 12.7349 8.94189 13.1293C8.94189 13.5238 9.26172 13.8436 9.65618 13.8436H14.8908C15.2853 13.8436 15.6051 13.5238 15.6051 13.1293C15.6051 12.7349 15.2854 12.415 14.8909 12.415Z" fill="#166EB4"/>
</g>
<defs>
<clipPath id="clip0_2938_432">
<rect width="24" height="24" fill="white" transform="translate(0.5)"/>
</clipPath>
</defs>
</svg>
