<svg width="25" height="24" viewBox="0 0 25 24" fill="none" xmlns="http://www.w3.org/2000/svg">
<g clip-path="url(#clip0_2938_396)">
<path d="M20.2781 9.92725V21.1085H16.0563V16.2727C16.0563 15.8487 15.7127 15.5051 15.2887 15.5051H9.89C9.46602 15.5051 9.12243 15.8487 9.12243 16.2727V21.1085H4.92627V9.92725H3.39111V21.8761C3.39111 22.3 3.73475 22.6436 4.15869 22.6436H9.89005C10.314 22.6436 10.6576 22.3 10.6576 21.8761V17.0403H14.5212V21.8761C14.5212 22.3001 14.8648 22.6437 15.2887 22.6437H21.0457C21.4697 22.6437 21.8133 22.3 21.8133 21.8761V9.92725H20.2781Z" fill="#333333"/>
<path d="M24.2569 11.9768L13.1269 1.56315C12.8339 1.28861 12.3784 1.28682 12.0829 1.55828L0.748199 11.9719C0.436058 12.2588 0.415574 12.7442 0.702402 13.0563C0.853621 13.2213 1.06034 13.3047 1.26786 13.3047C1.45334 13.3047 1.63962 13.2377 1.787 13.1023L12.5977 3.17021L23.2081 13.0977C23.5182 13.3876 24.0034 13.371 24.293 13.0616C24.5824 12.752 24.5665 12.2664 24.2569 11.9768Z" fill="#166EB4"/>
</g>
<defs>
<clipPath id="clip0_2938_396">
<rect width="24" height="24" fill="white" transform="translate(0.5)"/>
</clipPath>
</defs>
</svg>
