<svg width="25" height="24" viewBox="0 0 25 24" fill="none" xmlns="http://www.w3.org/2000/svg">
<g clip-path="url(#clip0_2938_426)">
<path fill-rule="evenodd" clip-rule="evenodd" d="M23.7968 9.0686H21.161V6.43262C21.161 6.04425 20.8461 5.72949 20.4579 5.72949H17.8219V7.13574H19.7548V16.8596H5.24512V14.9267H3.83887V17.5625C3.83887 17.9509 4.15363 18.2656 4.54199 18.2656H7.17798V20.9016C7.17798 21.2898 7.49274 21.6047 7.8811 21.6047H23.7968C24.1852 21.6047 24.4999 21.2898 24.4999 20.9016V9.77173C24.4999 9.38336 24.1852 9.0686 23.7968 9.0686ZM8.58423 20.1985H23.0937V10.4749H21.161V17.5627C21.161 17.9509 20.8463 18.2658 20.4579 18.2658H8.58423V20.1985Z" fill="#333333"/>
<path fill-rule="evenodd" clip-rule="evenodd" d="M17.822 5.72955V3.09375C17.822 2.70538 17.5072 2.39062 17.1188 2.39062H1.20312C0.814758 2.39062 0.5 2.70538 0.5 3.09375V14.2236C0.5 14.612 0.814758 14.9268 1.20312 14.9268H3.83893H5.24518H17.1188C17.5072 14.9268 17.822 14.612 17.822 14.2236V7.1358V5.72955ZM16.4157 3.79688H1.90625V13.5205H16.4157V3.79688Z" fill="#166EB4"/>
</g>
<defs>
<clipPath id="clip0_2938_426">
<rect width="24" height="24" fill="white" transform="translate(0.5)"/>
</clipPath>
</defs>
</svg>
