<svg width="65" height="48" viewBox="0 0 65 48" fill="none" xmlns="http://www.w3.org/2000/svg">
<path d="M46.9219 14.3235V11.7969C46.9219 5.57605 36.6879 0.703125 23.625 0.703125C10.5621 0.703125 0.328125 5.57605 0.328125 11.7969V22.8906C0.328125 28.199 7.77758 32.52 18.0781 33.6765V36.2031C18.0781 42.4239 28.3121 47.2969 41.375 47.2969C54.4379 47.2969 64.6719 42.4239 64.6719 36.2031V25.1094C64.6719 19.8731 57.4249 15.505 46.9219 14.3235ZM62.4531 25.1094C62.4531 29.3943 53.983 33.9844 41.375 33.9844C38.7728 33.9883 36.1749 33.7712 33.6094 33.3354V32.9499C41.5442 31.1998 46.9219 27.403 46.9219 22.8906V16.5589C55.8579 17.6211 62.4531 21.2071 62.4531 25.1094ZM27.0058 31.6519C25.9168 31.7277 24.7898 31.7656 23.625 31.7656C22.1079 31.7656 20.6519 31.6963 19.2624 31.5743H19.1875C18.0338 31.4689 16.9244 31.3246 15.8594 31.1416V22.2805C18.4274 22.6917 21.0243 22.8958 23.625 22.8906C26.2257 22.8958 28.8226 22.6917 31.3906 22.2805V31.1333C29.9654 31.3766 28.5288 31.5478 27.0863 31.6464L27.0058 31.6519ZM44.7031 16.6005V22.8906C44.7031 25.9081 40.4986 29.0754 33.6094 30.6868V21.8561C38.4989 20.7773 42.415 18.9218 44.7031 16.6005ZM23.625 2.92188C36.233 2.92188 44.7031 7.51191 44.7031 11.7969C44.7031 16.0818 36.233 20.6719 23.625 20.6719C11.017 20.6719 2.54688 16.0818 2.54688 11.7969C2.54688 7.51191 11.017 2.92188 23.625 2.92188ZM2.54688 22.8906V16.6005C4.83496 18.9218 8.75105 20.7773 13.6406 21.87V30.7006C6.75141 29.0754 2.54688 25.9081 2.54688 22.8906ZM20.2969 36.2031V33.8734C21.3813 33.9455 22.4934 33.9844 23.625 33.9844C24.7566 33.9844 25.8604 33.9455 26.9531 33.8762C28.4018 34.4033 29.8843 34.8323 31.3906 35.1603V43.9993C24.5014 42.3879 20.2969 39.2206 20.2969 36.2031ZM33.6094 44.4458V35.5846C36.1771 35.9992 38.774 36.206 41.375 36.2031C43.9757 36.2083 46.5726 36.0042 49.1406 35.593V44.4458C43.9979 45.2889 38.7521 45.2889 33.6094 44.4458ZM62.4531 36.2031C62.4531 39.2206 58.2486 42.3879 51.3594 43.9993V35.1686C56.2489 34.0898 60.165 32.2343 62.4531 29.8991V36.2031Z" fill="white"/>
</svg>
