<svg width="67" height="64" viewBox="0 0 67 64" fill="none" xmlns="http://www.w3.org/2000/svg">
<path d="M47.729 26.5283C37.4523 26.5283 29.1211 34.8596 29.1211 45.1362C29.1211 55.4129 37.4523 63.7441 47.729 63.7441C58.0057 63.7441 66.3369 55.4129 66.3369 45.1362C66.3257 34.8644 58.0009 26.5395 47.729 26.5283ZM47.729 61.555C38.6613 61.555 31.3103 54.204 31.3103 45.1362C31.3103 36.0685 38.6613 28.7175 47.729 28.7175C56.7967 28.7175 64.1478 36.0685 64.1478 45.1362C64.1376 54.1997 56.7925 61.5448 47.729 61.555Z" fill="white"/>
<path d="M2.85128 47.3249V15.582H53.2021V25.4332H55.3913V10.1091C55.3875 7.08773 52.9397 4.63989 49.9184 4.63615H42.2563V3.54156C42.2563 1.72812 40.786 0.257812 38.9725 0.257812C37.1591 0.257812 35.6888 1.72812 35.6888 3.54156V4.63615H20.3646V3.54156C20.3646 1.72812 18.8943 0.257812 17.0809 0.257812C15.2674 0.257812 13.7971 1.72812 13.7971 3.54156V4.63615H6.13503C3.1137 4.63989 0.665851 7.08773 0.662109 10.1091V47.3249C0.665851 50.3462 3.1137 52.7941 6.13503 52.7978H28.0267V50.6086H6.13503C4.32159 50.6086 2.85128 49.1383 2.85128 47.3249ZM37.8779 3.54156C37.8779 2.93708 38.368 2.44698 38.9725 2.44698C39.577 2.44698 40.0671 2.93708 40.0671 3.54156V7.9199C40.0671 8.52437 39.577 9.01448 38.9725 9.01448C38.368 9.01448 37.8779 8.52437 37.8779 7.9199V3.54156ZM15.9863 3.54156C15.9863 2.93708 16.4764 2.44698 17.0809 2.44698C17.6853 2.44698 18.1754 2.93708 18.1754 3.54156V7.9199C18.1754 8.52437 17.6853 9.01448 17.0809 9.01448C16.4764 9.01448 15.9863 8.52437 15.9863 7.9199V3.54156ZM6.13503 6.82531H13.7971V7.9199C13.7971 9.73333 15.2674 11.2036 17.0809 11.2036C18.8943 11.2036 20.3646 9.73333 20.3646 7.9199V6.82531H35.6888V7.9199C35.6888 9.73333 37.1591 11.2036 38.9725 11.2036C40.786 11.2036 42.2563 9.73333 42.2563 7.9199V6.82531H49.9184C51.7318 6.82531 53.2021 8.29562 53.2021 10.1091V13.3928H2.85128V10.1091C2.85128 8.29562 4.32159 6.82531 6.13503 6.82531Z" fill="white"/>
<path d="M15.9871 24.3386C15.9871 23.1296 15.0069 22.1494 13.798 22.1494H9.41964C8.21068 22.1494 7.23047 23.1296 7.23047 24.3386V28.7169C7.23047 29.9259 8.21068 30.9061 9.41964 30.9061H13.798C15.0069 30.9061 15.9871 29.9259 15.9871 28.7169V24.3386ZM9.41964 28.7169V24.3386H13.798V28.7169H9.41964Z" fill="white"/>
<path d="M26.9324 24.3386C26.9324 23.1296 25.9522 22.1494 24.7433 22.1494H20.3649C19.156 22.1494 18.1758 23.1296 18.1758 24.3386V28.7169C18.1758 29.9259 19.156 30.9061 20.3649 30.9061H24.7433C25.9522 30.9061 26.9324 29.9259 26.9324 28.7169V24.3386ZM20.3649 28.7169V24.3386H24.7433V28.7169H20.3649Z" fill="white"/>
<path d="M37.8778 27.6223V24.3386C37.8778 23.1296 36.8976 22.1494 35.6886 22.1494H31.3103C30.1013 22.1494 29.1211 23.1296 29.1211 24.3386V28.7169C29.1211 29.9259 30.1013 30.9061 31.3103 30.9061H33.4994V28.7169H31.3103V24.3386H35.6886V27.6223H37.8778Z" fill="white"/>
<path d="M13.798 35.2842H9.41964C8.21068 35.2842 7.23047 36.2644 7.23047 37.4733V41.8517C7.23047 43.0606 8.21068 44.0408 9.41964 44.0408H13.798C15.0069 44.0408 15.9871 43.0606 15.9871 41.8517V37.4733C15.9871 36.2644 15.0069 35.2842 13.798 35.2842ZM9.41964 41.8517V37.4733H13.798V41.8517H9.41964Z" fill="white"/>
<path d="M24.7433 35.2842H20.3649C19.156 35.2842 18.1758 36.2644 18.1758 37.4733V41.8517C18.1758 43.0606 19.156 44.0408 20.3649 44.0408H24.7433C25.9522 44.0408 26.9324 43.0606 26.9324 41.8517V37.4733C26.9324 36.2644 25.9522 35.2842 24.7433 35.2842ZM20.3649 41.8517V37.4733H24.7433V41.8517H20.3649Z" fill="white"/>
<path d="M48.825 25.4332V24.3386C48.825 23.1296 47.8448 22.1494 46.6359 22.1494H42.2575C41.0486 22.1494 40.0684 23.1296 40.0684 24.3386V25.4332H42.2575V24.3386H46.6359V25.4332H48.825Z" fill="white"/>
<path d="M49.0606 41.5139C51.3578 41.5139 53.1785 42.1608 54.5226 43.4548C55.8911 44.7247 56.5754 46.426 56.5754 48.5586C56.5754 50.0681 56.2088 51.386 55.4757 52.5122C54.7669 53.6145 53.765 54.4651 52.4697 55.0641C51.1989 55.6632 49.7204 55.9627 48.0342 55.9627C45.4926 55.9627 43.4642 55.3038 41.949 53.9859C40.4583 52.668 39.7129 50.8828 39.7129 48.6305C39.7129 47.2167 39.9695 45.8869 40.4827 44.6408C40.9959 43.3948 41.9123 41.8373 43.232 39.9683L48.1808 32.8877L52.0665 35.4037L47.7042 41.6576C48.0953 41.5618 48.5474 41.5139 49.0606 41.5139ZM48.1808 52.1169C49.1583 52.1169 49.9037 51.7934 50.4169 51.1464C50.9546 50.4995 51.2234 49.6129 51.2234 48.4867C51.2234 47.3844 50.9546 46.5218 50.4169 45.8988C49.9037 45.2758 49.1706 44.9643 48.2175 44.9643C47.2888 44.9643 46.5312 45.2878 45.9447 45.9348C45.3826 46.5578 45.1016 47.4204 45.1016 48.5226C45.1016 49.6249 45.3704 50.4995 45.908 51.1464C46.4457 51.7934 47.2033 52.1169 48.1808 52.1169Z" fill="white"/>
</svg>
