<svg width="72" height="72" viewBox="0 0 72 72" fill="none" xmlns="http://www.w3.org/2000/svg">
<path d="M63.123 36.5276C63.6589 36.5276 64.0937 36.0927 64.0937 35.5569V32.6448H65.0644C65.6003 32.6448 66.0352 32.2099 66.0352 31.6741V27.7913C66.0352 27.2554 65.6003 26.8206 65.0644 26.8206H57.2988V16.0234L59.8498 17.0436L60.5711 15.241L36.3035 5.53401C36.0715 5.44179 35.8143 5.44179 35.5823 5.53401L11.3147 15.241L12.0359 17.0436L14.5879 16.0234V26.8206H6.82227C6.28644 26.8206 5.85156 27.2554 5.85156 27.7913V31.6741C5.85156 32.2099 6.28644 32.6448 6.82227 32.6448H7.79297V35.5569C7.79297 36.0927 8.22784 36.5276 8.76367 36.5276H9.73437V55.9416H8.76367C8.22784 55.9416 7.79297 56.3765 7.79297 56.9124V59.8245H6.82227C6.28644 59.8245 5.85156 60.2593 5.85156 60.7952V64.678C5.85156 65.2138 6.28644 65.6487 6.82227 65.6487H65.0644C65.6003 65.6487 66.0352 65.2138 66.0352 64.678V60.7952C66.0352 60.2593 65.6003 59.8245 65.0644 59.8245H64.0937V56.9124C64.0937 56.3765 63.6589 55.9416 63.123 55.9416H62.1523V36.5276H63.123ZM62.1523 34.5862H54.3867V32.6448H62.1523V34.5862ZM53.416 55.9416C52.8802 55.9416 52.4453 56.3765 52.4453 56.9124V59.8245H50.5039V56.9124C50.5039 56.3765 50.069 55.9416 49.5332 55.9416H48.5625V36.5276H49.5332C50.069 36.5276 50.5039 36.0927 50.5039 35.5569V32.6448H52.4453V35.5569C52.4453 36.0927 52.8802 36.5276 53.416 36.5276H54.3867V55.9416H53.416ZM18.4707 55.9416H17.5V36.5276H18.4707C19.0065 36.5276 19.4414 36.0927 19.4414 35.5569V32.6448H21.3828V35.5569C21.3828 36.0927 21.8177 36.5276 22.3535 36.5276H23.3242V55.9416H22.3535C21.8177 55.9416 21.3828 56.3765 21.3828 56.9124V59.8245H19.4414V56.9124C19.4414 56.3765 19.0065 55.9416 18.4707 55.9416ZM25.2656 55.9416V36.5276H29.1484V55.9416H25.2656ZM23.3242 34.5862V32.6448H31.0898V34.5862H23.3242ZM23.3242 57.8831H31.0898V59.8245H23.3242V57.8831ZM32.0605 55.9416H31.0898V36.5276H32.0605C32.5964 36.5276 33.0312 36.0927 33.0312 35.5569V32.6448H38.8555V35.5569C38.8555 36.0927 39.2903 36.5276 39.8262 36.5276H40.7969V55.9416H39.8262C39.2903 55.9416 38.8555 56.3765 38.8555 56.9124V59.8245H33.0312V56.9124C33.0312 56.3765 32.5964 55.9416 32.0605 55.9416ZM42.7383 55.9416V36.5276H46.6211V55.9416H42.7383ZM40.7969 34.5862V32.6448H48.5625V34.5862H40.7969ZM40.7969 57.8831H48.5625V59.8245H40.7969V57.8831ZM16.5293 15.2469L35.9434 7.48124L55.3574 15.2469V26.8206H35.9434H16.5293V15.2469ZM7.79297 28.762H64.0937V30.7034H7.79297V28.762ZM17.5 32.6448V34.5862H9.73437V32.6448H17.5ZM11.6758 36.5276H15.5586V55.9416H11.6758V36.5276ZM9.73437 57.8831H17.5V59.8245H9.73437V57.8831ZM64.0937 63.7073H7.79297V61.7659H64.0937V63.7073ZM54.3867 59.8245V57.8831H62.1523V59.8245H54.3867ZM60.2109 55.9416H56.3281V36.5276H60.2109V55.9416Z" fill="white"/>
<path d="M36.9142 13.2305H34.9728V15.1719H34.0021C33.61 15.1719 33.2557 15.4087 33.1052 15.7708C32.9547 16.1338 33.0382 16.5512 33.3158 16.8289L35.5417 19.0547H33.0314V20.9961H34.9728V22.9375H36.9142V20.9961H37.885C38.2771 20.9961 38.6314 20.7592 38.7819 20.3972C38.9323 20.0341 38.8489 19.6167 38.5712 19.3391L36.3454 17.1133H38.8557V15.1719H36.9142V13.2305Z" fill="#969EAD"/>
<path d="M44.6797 18.084C44.6797 13.2674 40.76 9.34766 35.9434 9.34766C31.1267 9.34766 27.207 13.2674 27.207 18.084C27.207 22.9006 31.1267 26.8203 35.9434 26.8203C40.76 26.8203 44.6797 22.9006 44.6797 18.084ZM35.9434 24.8789C32.1964 24.8789 29.1484 21.8309 29.1484 18.084C29.1484 14.3371 32.1964 11.2891 35.9434 11.2891C39.6903 11.2891 42.7383 14.3371 42.7383 18.084C42.7383 21.8309 39.6903 24.8789 35.9434 24.8789Z" fill="#969EAD"/>
<path fill-rule="evenodd" clip-rule="evenodd" d="M3.10547 65.0581L66.3316 1.83203L69.668 5.16842L6.44186 68.3945L3.10547 65.0581Z" fill="#CD5554"/>
</svg>
