<svg width="24" height="24" viewBox="0 0 24 24" fill="none" xmlns="http://www.w3.org/2000/svg">
<g clip-path="url(#clip0)">
<path d="M3.51801 0H0.706309C0.318137 0 0.00341797 0.314719 0.00341797 0.702937V3.56152C0.00341797 3.94973 0.31809 4.26445 0.706355 4.26445C1.09457 4.26445 1.40929 3.94973 1.40929 3.56152V1.40587H3.51806C3.90628 1.40587 4.221 1.09116 4.221 0.702937C4.22095 0.314719 3.90623 0 3.51801 0Z" fill="#166EB4"/>
<path d="M23.2934 0H20.4817C20.0935 0 19.7788 0.314719 19.7788 0.702937C19.7788 1.09116 20.0935 1.40587 20.4817 1.40587H22.5905V3.56152C22.5905 3.94973 22.9052 4.26445 23.2934 4.26445C23.6817 4.26445 23.9964 3.94973 23.9964 3.56152V0.702937C23.9964 0.314719 23.6817 0 23.2934 0Z" fill="#166EB4"/>
<path d="M3.51757 22.5873H1.4088V20.4317C1.4088 20.0435 1.09409 19.7288 0.705867 19.7288C0.317648 19.7288 0.00292969 20.0435 0.00292969 20.4317V23.2903C0.00292969 23.6785 0.317602 23.9932 0.705867 23.9932H3.51757C3.90579 23.9932 4.22051 23.6785 4.22051 23.2903C4.22051 22.9021 3.90579 22.5873 3.51757 22.5873Z" fill="#166EB4"/>
<path d="M23.2934 19.7288C22.9052 19.7288 22.5905 20.0435 22.5905 20.4317V22.5873H20.4817C20.0935 22.5873 19.7788 22.9021 19.7788 23.2903C19.7788 23.6785 20.0935 23.9932 20.4817 23.9932H23.2934C23.6817 23.9932 23.9964 23.6785 23.9964 23.2903V20.4317C23.9964 20.0435 23.6817 19.7288 23.2934 19.7288Z" fill="#166EB4"/>
<path d="M22.1418 5.76717L12.3518 0.0951992C12.1339 -0.031082 11.865 -0.031082 11.6471 0.0951992L1.85311 5.76712C1.63721 5.89223 1.50244 6.12515 1.50244 6.3749C1.50244 6.37631 1.50258 6.37771 1.50258 6.37907V17.6255C1.50258 17.8777 1.6396 18.1136 1.86024 18.2378L11.6471 23.9058C11.7526 23.9669 11.878 24.0005 11.9995 24.0005C12.1264 24.0005 12.2504 23.9646 12.3519 23.9058L22.1348 18.2378C22.1365 18.2369 22.1381 18.2359 22.1397 18.235C22.3665 18.0714 22.4887 17.9339 22.4921 17.634C22.4921 17.6312 22.4924 17.6284 22.4924 17.6256V6.37917C22.4924 6.37776 22.4925 6.37636 22.4925 6.375C22.4925 6.12501 22.3576 5.89204 22.1418 5.76717ZM11.2965 22.0779L3.61721 17.6287L9.53747 14.2336C9.87427 14.0405 9.99071 13.6109 9.79753 13.2742C9.60446 12.9374 9.17489 12.821 8.8381 13.0141L2.90832 16.4122V7.58995L11.2965 12.4073V22.0779ZM11.9995 11.1898L3.61618 6.37289L11.9995 1.51579L20.3828 6.37289L11.9995 11.1898ZM21.0911 16.4122L15.1609 13.014C14.8241 12.821 14.3946 12.9373 14.2014 13.2741C14.0083 13.6109 14.1247 14.0404 14.4615 14.2335L20.3818 17.6286L12.7024 22.0778V12.4073L21.091 7.58995V16.4122H21.0911Z" fill="#166EB4"/>
</g>
<defs>
<clipPath id="clip0">
<path d="M0 0H24V24H0V0Z" fill="white"/>
</clipPath>
</defs>
</svg>
