<svg width="20" height="20" viewBox="0 0 20 20" fill="none" xmlns="http://www.w3.org/2000/svg">
<g clip-path="url(#clip0_2840_45143)">
<path d="M10.8331 5C10.8331 5.46021 10.46 5.83328 9.99979 5.83328C9.53958 5.83328 9.1665 5.46021 9.1665 5C9.1665 4.53979 9.53958 4.16672 9.99979 4.16672C10.46 4.16672 10.8331 4.53979 10.8331 5Z" fill="#81868F"/>
<path d="M9.99979 15.8333C9.65479 15.8333 9.37479 15.5533 9.37479 15.2083V8.75H8.5415C8.1965 8.75 7.9165 8.47 7.9165 8.125C7.9165 7.78 8.1965 7.5 8.5415 7.5H9.99979C10.3448 7.5 10.6248 7.78 10.6248 8.125V15.2083C10.6248 15.5533 10.3448 15.8333 9.99979 15.8333Z" fill="#81868F"/>
<path d="M10 20C4.48578 20 0 15.5142 0 10C0 4.48578 4.48578 0 10 0C15.5142 0 20 4.48578 20 10C20 15.5142 15.5142 20 10 20ZM10 1.25C5.17502 1.25 1.25 5.17502 1.25 10C1.25 14.825 5.17502 18.75 10 18.75C14.825 18.75 18.75 14.825 18.75 10C18.75 5.17502 14.825 1.25 10 1.25Z" fill="#81868F"/>
<path d="M11.875 15.8333H8.125C7.78 15.8333 7.5 15.5533 7.5 15.2083C7.5 14.8633 7.78 14.5833 8.125 14.5833H11.875C12.22 14.5833 12.5 14.8633 12.5 15.2083C12.5 15.5533 12.22 15.8333 11.875 15.8333Z" fill="#81868F"/>
</g>
<defs>
<clipPath id="clip0_2840_45143">
<rect width="20" height="20" fill="white"/>
</clipPath>
</defs>
</svg>
