<svg width="20" height="20" viewBox="0 0 20 20" fill="none" xmlns="http://www.w3.org/2000/svg">
<g clip-path="url(#clip0_2840_45171)">
<path d="M2.94531 4.88281H7.25C7.55469 4.88281 7.80078 4.63672 7.80078 4.33203C7.80078 4.02734 7.55469 3.78125 7.25 3.78125H2.94531C2.64063 3.78125 2.39453 4.02734 2.39453 4.33203C2.39453 4.63672 2.64063 4.88281 2.94531 4.88281Z" fill="#81868F"/>
<path d="M2.94531 7.95703H11.6211C11.9258 7.95703 12.1719 7.71094 12.1719 7.40625C12.1719 7.10156 11.9258 6.85547 11.6211 6.85547H2.94531C2.64063 6.85547 2.39453 7.10156 2.39453 7.40625C2.39453 7.71094 2.64063 7.95703 2.94531 7.95703Z" fill="#81868F"/>
<path d="M2.94531 11.0312H11.6211C11.9258 11.0312 12.1719 10.7852 12.1719 10.4805C12.1719 10.1758 11.9258 9.92969 11.6211 9.92969H2.94531C2.64063 9.92969 2.39453 10.1758 2.39453 10.4805C2.39453 10.7852 2.64063 11.0312 2.94531 11.0312Z" fill="#81868F"/>
<path d="M7.10938 13H2.94531C2.64063 13 2.39453 13.2461 2.39453 13.5508C2.39453 13.8555 2.64063 14.1016 2.94531 14.1016H7.10938C7.41406 14.1016 7.66016 13.8555 7.66016 13.5508C7.66016 13.25 7.41406 13 7.10938 13Z" fill="#81868F"/>
<path d="M5.80078 16.0742H2.94531C2.64063 16.0742 2.39453 16.3203 2.39453 16.625C2.39453 16.9297 2.64063 17.1758 2.94531 17.1758H5.80078C6.10547 17.1758 6.35156 16.9297 6.35156 16.625C6.35547 16.3203 6.10547 16.0742 5.80078 16.0742Z" fill="#81868F"/>
<path d="M19.3242 6.94141C18.6602 6.26172 17.5508 6.08203 16.7734 6.80859L14.4883 9.09375V4.58203C14.4883 4.4375 14.4297 4.29688 14.3281 4.19141L10.375 0.238281C10.2734 0.136719 10.1328 0.078125 9.98438 0.078125H1.73438C0.820313 0.078125 0.078125 0.820312 0.078125 1.73047V18.2656C0.078125 19.1797 0.820313 19.9219 1.73438 19.9219H12.8359C13.7461 19.9219 14.4883 19.1797 14.4883 18.2695V14.4609L19.457 9.49219C20.125 8.82422 20.0664 7.67969 19.3242 6.94141ZM12.6055 4.03125H10.5352V1.96094L12.6055 4.03125ZM13.3867 18.2695C13.3867 18.5742 13.1406 18.8203 12.8359 18.8203H1.73438C1.42969 18.8203 1.18359 18.5742 1.18359 18.2695V1.73047C1.18359 1.42578 1.42969 1.17969 1.73438 1.17969H9.4375V4.57812C9.4375 4.88281 9.68359 5.12891 9.98828 5.12891H13.3867V10.1992L8.57422 15.0117C8.5 15.0859 8.44922 15.1797 8.42578 15.2812L7.88281 17.7266C7.84375 17.9102 7.89844 18.1016 8.03125 18.2344C8.1875 18.3828 8.35938 18.4141 8.53906 18.3828L10.9844 17.8398C11.0859 17.8164 11.1797 17.7656 11.2539 17.6914L13.3828 15.5625V18.2695H13.3867ZM18.6758 8.71484L10.5898 16.8008L9.14844 17.1211L9.46875 15.6797L17.5547 7.59375C17.8086 7.35156 18.2344 7.42578 18.5469 7.72656C18.8516 8.02734 18.9102 8.48047 18.6758 8.71484Z" fill="#81868F"/>
</g>
<defs>
<clipPath id="clip0_2840_45171">
<rect width="20" height="20" fill="white"/>
</clipPath>
</defs>
</svg>
