<svg width="20" height="20" viewBox="0 0 20 20" fill="none" xmlns="http://www.w3.org/2000/svg">
<g clip-path="url(#clip0_4330_46657)">
<path d="M19.928 15.6966L18.7664 12.316C19.3263 11.1714 19.6222 9.89842 19.6242 8.61759C19.6277 6.39052 18.766 4.28477 17.198 2.68829C15.6296 1.09149 13.5397 0.192616 11.3131 0.157343C9.00432 0.120858 6.83416 0.999063 5.20263 2.63055C3.62943 4.20372 2.75685 6.27767 2.72923 8.49392C1.17868 9.66135 0.263482 11.4815 0.26649 13.4256C0.267935 14.3353 0.472701 15.2397 0.86071 16.0575L0.060591 18.3859C-0.0769483 18.7862 0.0235207 19.2208 0.322818 19.5201C0.533444 19.7307 0.811139 19.8429 1.09673 19.8429C1.21688 19.8429 1.33845 19.823 1.457 19.7823L3.78548 18.9822C4.60326 19.3702 5.50759 19.575 6.41736 19.5764C6.42064 19.5764 6.42377 19.5764 6.42705 19.5764C8.4001 19.5763 10.2341 18.6375 11.3973 17.049C12.6077 17.0171 13.8053 16.7241 14.888 16.1944L18.2686 17.3561C18.4095 17.4045 18.5539 17.4281 18.6967 17.4281C19.0361 17.4281 19.3661 17.2948 19.6164 17.0444C19.9721 16.6887 20.0915 16.1723 19.928 15.6966ZM6.42697 18.3859C6.42443 18.3859 6.42174 18.3859 6.4192 18.3859C5.61396 18.3847 4.81431 18.1862 4.10685 17.8119C3.96138 17.735 3.7906 17.7217 3.63505 17.7751L1.24743 18.5955L2.06786 16.208C2.1213 16.0524 2.10802 15.8816 2.03106 15.7362C1.65677 15.0287 1.45825 14.2291 1.457 13.4238C1.45501 12.1285 1.95888 10.9008 2.84001 9.9815C3.12782 11.736 3.96404 13.3528 5.26021 14.626C6.54681 15.8897 8.16408 16.6943 9.90909 16.9573C8.98768 17.8655 7.74565 18.3859 6.42697 18.3859ZM18.7746 16.2026C18.7407 16.2365 18.7006 16.2457 18.6554 16.2302L15.0363 14.9866C14.9735 14.965 14.9081 14.9542 14.8429 14.9542C14.7469 14.9542 14.6512 14.9775 14.5646 15.0233C13.5312 15.57 12.3636 15.8599 11.1877 15.8617C11.1839 15.8617 11.1803 15.8617 11.1765 15.8617C7.2365 15.8617 3.98208 12.6612 3.91966 8.72213C3.88822 6.73833 4.64283 4.87391 6.04443 3.47231C7.44604 2.07071 9.31077 1.31637 11.2943 1.34762C15.2371 1.41016 18.4398 4.67059 18.4338 8.61572C18.4319 9.79158 18.142 10.9593 17.5954 11.9925C17.5185 12.138 17.5052 12.3087 17.5586 12.4643L18.8022 16.0834C18.8177 16.1287 18.8084 16.1688 18.7746 16.2026Z" fill="#969EAD"/>
<path d="M14.7226 5.44922H7.63039C7.30164 5.44922 7.03516 5.71574 7.03516 6.04445C7.03516 6.37321 7.30168 6.63969 7.63039 6.63969H14.7226C15.0513 6.63969 15.3178 6.37317 15.3178 6.04445C15.3178 5.71574 15.0513 5.44922 14.7226 5.44922Z" fill="#969EAD"/>
<path d="M14.7226 7.89746H7.63039C7.30164 7.89746 7.03516 8.16399 7.03516 8.4927C7.03516 8.82141 7.30168 9.08793 7.63039 9.08793H14.7226C15.0513 9.08793 15.3178 8.82141 15.3178 8.4927C15.3178 8.16399 15.0513 7.89746 14.7226 7.89746Z" fill="#969EAD"/>
<path d="M11.9926 10.3457H7.63039C7.30164 10.3457 7.03516 10.6122 7.03516 10.9409C7.03516 11.2697 7.30168 11.5362 7.63039 11.5362H11.9926C12.3213 11.5362 12.5878 11.2697 12.5878 10.9409C12.5878 10.6122 12.3214 10.3457 11.9926 10.3457Z" fill="#969EAD"/>
</g>
<defs>
<clipPath id="clip0_4330_46657">
<rect width="20" height="20" fill="white"/>
</clipPath>
</defs>
</svg>
