<svg width="24" height="24" viewBox="0 0 24 24" fill="none" xmlns="http://www.w3.org/2000/svg">
<path d="M21.4142 2.8125H2.586C1.15997 2.8125 0 3.97247 0 5.3985V18.5781C0 20.0041 1.15997 21.1641 2.586 21.1641H21.4142C22.84 21.1641 24 20.0041 24 18.5781V5.3985C24 3.97247 22.84 2.8125 21.4142 2.8125V2.8125ZM2.586 4.21875H21.4142C22.0646 4.21875 22.5938 4.74792 22.5938 5.3985V7.33118H1.40625V5.3985C1.40625 4.74792 1.93542 4.21875 2.586 4.21875ZM21.4142 19.7578H2.586C1.93542 19.7578 1.40625 19.2286 1.40625 18.5781V8.73743H22.5938V18.5781C22.5938 19.2286 22.0646 19.7578 21.4142 19.7578Z" fill="#166EB4"/>
<path d="M19.5309 12.2266H13.5059C13.1177 12.2266 12.8027 12.5415 12.8027 12.9297C12.8027 13.3181 13.1177 13.6328 13.5059 13.6328H19.5309C19.9191 13.6328 20.2341 13.3181 20.2341 12.9297C20.2341 12.5415 19.9191 12.2266 19.5309 12.2266Z" fill="#166EB4"/>
<path d="M19.5312 15.9922H15.7656C15.3773 15.9922 15.0625 16.3069 15.0625 16.6953C15.0625 17.0835 15.3773 17.3984 15.7656 17.3984H19.5312C19.9194 17.3984 20.2343 17.0835 20.2343 16.6953C20.2343 16.3069 19.9194 15.9922 19.5312 15.9922Z" fill="#166EB4"/>
<path d="M8.73145 12.4326C8.59961 12.3007 8.42072 12.2266 8.23431 12.2266H4.46875C4.08038 12.2266 3.76562 12.5415 3.76562 12.9297V16.6954C3.76562 17.0836 4.08038 17.3986 4.46875 17.3986H9.74054C10.1289 17.3986 10.4437 17.0836 10.4437 16.6954V14.4361C10.4437 14.2495 10.3695 14.0706 10.2377 13.9388L8.73145 12.4326ZM9.03741 15.9923H5.17188V13.6328H7.94299L9.03741 14.7272V15.9923Z" fill="#166EB4"/>
</svg>
