<svg width="20" height="20" viewBox="0 0 20 20" fill="none" xmlns="http://www.w3.org/2000/svg">
<g clip-path="url(#clip0_2840_45182)">
<path d="M19.958 16.1527L18.3955 0.527656C18.3656 0.228125 18.1135 0 17.8125 0H2.1875C1.88648 0 1.63441 0.228125 1.60445 0.527656L0.0419531 16.1527C0.04 16.172 0.0390625 16.1915 0.0390625 16.2109V19.4141C0.0390625 19.7377 0.301406 20 0.625 20H19.375C19.6986 20 19.9609 19.7377 19.9609 19.4141V16.2109C19.9609 16.1915 19.96 16.172 19.958 16.1527ZM18.7275 15.625H10.8611C10.7931 15.3734 10.6876 15.0477 10.528 14.6936C11.824 14.398 14.2143 13.5548 14.8603 11.2938C15.1166 10.3964 15.7626 9.87996 16.835 9.71473C17.3315 9.63824 17.8098 9.65934 18.1343 9.6927L18.7275 15.625ZM8.15824 7.70656C9.0273 7.60828 10.6057 7.5843 11.0185 8.61605C11.629 10.1423 12.8589 11.0214 13.5605 11.4188C12.8007 12.9588 10.7082 13.4781 9.89613 13.6246C9.4302 13.0147 8.7707 12.4491 7.84156 12.1394C7.57219 12.0496 7.30727 11.9295 7.05043 11.7895C7.83371 10.8471 8.23414 9.79719 8.24211 8.65984C8.24438 8.33297 8.21367 8.01422 8.15824 7.70656ZM18.0157 8.50652C17.647 8.48148 17.1814 8.47922 16.6922 8.55117C15.4125 8.73938 14.492 9.34438 13.9922 10.3142C13.5075 10.0188 12.7918 9.47379 12.3189 8.6259C13.5785 7.79203 14.4016 6.59297 14.7479 5.09582C15.2663 5.12867 15.993 5.2141 16.3786 5.40691C16.8939 5.66457 17.5025 6.12285 17.8008 6.3575L18.0157 8.50652ZM17.2822 1.17188L17.6447 4.79641C17.4041 4.63703 17.148 4.48141 16.9027 4.35875C16.3431 4.07895 15.5009 3.97211 14.9164 3.93137C14.9229 3.83199 14.9284 3.73195 14.9314 3.63055C14.9603 2.64859 14.8145 1.76723 14.6772 1.17191H17.2822V1.17188ZM10.3151 2.32324C10.4455 1.90582 10.5131 1.49148 10.5481 1.17188H13.47C13.6003 1.66348 13.7902 2.57031 13.76 3.59605C13.708 5.3634 13.0377 6.70215 11.7667 7.58473C10.786 6.32613 8.78391 6.42957 7.83117 6.56309C7.49434 5.69848 7.0152 4.98344 6.64852 4.5116C7.03398 4.37828 7.4882 4.29688 8.04688 4.29688C9.11187 4.29688 9.91742 3.59598 10.3151 2.32324ZM2.71777 1.17188H9.365C9.26477 1.92211 8.96137 3.125 8.04688 3.125C5.99121 3.125 4.9516 4.06203 4.1925 4.74621C3.68055 5.20766 3.37129 5.46875 2.96875 5.46875H2.28809L2.71777 1.17188ZM2.1709 6.64062H2.96875C3.84105 6.64062 4.41855 6.12008 4.97707 5.61668C5.17824 5.43535 5.38141 5.25234 5.60469 5.08266C6.11922 5.7118 7.08113 7.0973 7.07023 8.65164C7.06395 9.54508 6.72641 10.3794 6.06594 11.1373C5.62457 10.7952 5.2325 10.4267 4.91742 10.1027C4.13422 9.2973 3.08594 8.78055 1.97137 8.63562L2.1709 6.64062ZM1.85473 9.80234C2.69648 9.91906 3.48613 10.3118 4.07734 10.9197C4.86531 11.7299 6.09367 12.7921 7.47098 13.2512C8.77043 13.6843 9.37324 14.8681 9.63324 15.625H1.27246L1.85473 9.80234ZM18.7891 18.8281H1.21094V16.7969H18.7891V18.8281Z" fill="#81868F"/>
</g>
<defs>
<clipPath id="clip0_2840_45182">
<rect width="20" height="20" fill="white"/>
</clipPath>
</defs>
</svg>
