<svg id="Слой_1" data-name="Слой 1" xmlns="http://www.w3.org/2000/svg" xml:space="preserve" width="309px" height="122px" version="1.1" viewBox="0 0 308.98 121.89"><defs><style>.cls-1,.cls-2{fill:#1b1b1b;}.cls-1{fill-rule:evenodd;}</style></defs><title>каменая роза</title><path class="cls-1" d="M99.41,28.29l-15,10-5.71,3.94Q84,48.68,89.28,55l3.41,4.64,0,.23-3-.19-3.18.19a38.16,38.16,0,0,0-2.85-4.22L74.21,43.87a2.44,2.44,0,0,0-.53-.18c-.24-.07-.38,0-.42,0l-3.8,16.15L67,59.69l-2.53.18,7.43-31.6,2.47.14,2.48-.13L73.54,42.53l.5.09a2.58,2.58,0,0,0,.95-.37,19,19,0,0,0,1.84-1.1c.82-.56,1.38-.94,1.68-1.16L95,28.28l2.24.13Z"/><path class="cls-1" d="M120.11,45.25,117.59,56a6.4,6.4,0,0,0-.28,1.44c0,.55.41.82,1.23.82a12.1,12.1,0,0,0,1.68-.14l-.23,1c-.11,0-.4.11-.86.23a10.69,10.69,0,0,1-1.31.28,10.27,10.27,0,0,1-1.46.09,4,4,0,0,1-2.45-.64,2.58,2.58,0,0,1-.84-2.17l-.61.41a15.4,15.4,0,0,1-8.94,2.91A7.87,7.87,0,0,1,99,59a3.82,3.82,0,0,1-1.79-3.3,3.89,3.89,0,0,1,.17-1.11,7.1,7.1,0,0,1,4.41-5,32.41,32.41,0,0,1,7.54-1.61,27.55,27.55,0,0,0,4.8-.92A3,3,0,0,0,116,44.84a6.37,6.37,0,0,0,.17-1.43q0-4-5.47-4a10.35,10.35,0,0,0-5,1.2,5.79,5.79,0,0,0-2.4,2h-.61L103.3,40a26.22,26.22,0,0,1,4.77-1.89,17.78,17.78,0,0,1,4.78-.65q7.53,0,7.53,5.45a9.24,9.24,0,0,1-.27,2.3Zm-6.81,9.83,1.59-6.74-2.06.37A51.1,51.1,0,0,0,106.42,50c-2.41.83-3.85,2.15-4.29,4a4.71,4.71,0,0,0-.17,1.15q0,3.14,4.63,3.14a7.28,7.28,0,0,0,2.53-.56,11.65,11.65,0,0,0,2.4-1.2,9.62,9.62,0,0,0,.92-.62C113,55.46,113.27,55.2,113.3,55.08Z"/><path class="cls-1" d="M123.4,59.88c1-1.92,2.42-5.18,4.24-9.81q2.07-5.18,4.75-12.24h1.51q1.66,4.53,3.88,9.45c1.47,3.29,2.72,5.87,3.77,7.75q2.89-3.15,7.2-8,4.63-5.22,7.93-9.2h1.51a94.34,94.34,0,0,1-.7,11.21q-.7,5.74-1.31,10.84l-2.41-.19-2.51.19c.45-2.53.9-5.12,1.37-7.77a42.29,42.29,0,0,0,.7-7.32q-6.65,6.81-13.63,15.09h-1.28a140.5,140.5,0,0,0-6.59-15.09q-2.73,6.85-3.8,9.81c-.7,2-1.26,3.73-1.67,5.28a12.34,12.34,0,0,0-1.34-.19Z"/><path class="cls-1" d="M184.65,55.13,184,57.5a23.42,23.42,0,0,1-5,2,20,20,0,0,1-5.19.71c-3.39,0-6-.74-8-2.24A7.53,7.53,0,0,1,163,51.67a13.45,13.45,0,0,1,.33-2.82,14,14,0,0,1,5.14-8.07,16.27,16.27,0,0,1,10.27-3.28,10.79,10.79,0,0,1,6.59,1.86,6.78,6.78,0,0,1,2.74,5.79,10.8,10.8,0,0,1-.17,1.73,16.09,16.09,0,0,1-.45,2l-11.33-.14h-7.87a10.18,10.18,0,0,0-.51,3.08,5.93,5.93,0,0,0,2,4.7c1.34,1.18,3.32,1.77,5.92,1.77a13.84,13.84,0,0,0,5.25-1.09,22.28,22.28,0,0,0,3.74-2Zm-16-8.12h14.86a13.33,13.33,0,0,0,.33-2.88,5.34,5.34,0,0,0-1.12-3.67q-1.33-1.53-4.35-1.53A8.94,8.94,0,0,0,172,41.49,12.86,12.86,0,0,0,168.68,47Z"/><path class="cls-1" d="M205.13,47.28c1.53,0,2.89,0,4.08-.07s2.1-.1,2.74-.16l2.18-9.32,2.25.19,2.25-.18-5.2,22.15-2.19-.2-2.3.19,2.58-10.75L204.76,49l-6.76.14-2.57,10.75-2.19-.19-2.31.19,5.2-22.15,2.25.19,2.24-.19-2.19,9.32c.56,0,1,.05,1.4.05C202.43,47.22,204.2,47.28,205.13,47.28Z"/><path class="cls-1" d="M236.18,47.28c1.52,0,2.88,0,4.07-.07s2.11-.1,2.74-.16l2.19-9.32,2.25.19,2.24-.18-5.19,22.15-2.2-.2-2.3.19,2.58-10.75L235.81,49l-6.76.14-2.58,10.75-2.18-.19-2.31.19,5.19-22.15,2.25.19,2.24-.19-2.18,9.32c.56,0,1,.05,1.39.05Q234.78,47.28,236.18,47.28Z"/><path class="cls-1" d="M275.27,45.25,272.76,56a5.87,5.87,0,0,0-.28,1.44c0,.55.41.82,1.23.82a12.09,12.09,0,0,0,1.67-.14l-.22,1c-.11,0-.4.11-.86.23a10.83,10.83,0,0,1-1.32.28,10.13,10.13,0,0,1-1.45.09,4,4,0,0,1-2.46-.64,2.6,2.6,0,0,1-.83-2.17l-.62.41a15.37,15.37,0,0,1-8.93,2.91A7.87,7.87,0,0,1,254.17,59a3.8,3.8,0,0,1-1.79-3.3,3.89,3.89,0,0,1,.17-1.11,7.1,7.1,0,0,1,4.41-5,32.29,32.29,0,0,1,7.54-1.61,27.77,27.77,0,0,0,4.8-.92,3,3,0,0,0,1.84-2.17,7,7,0,0,0,.17-1.43c0-2.65-1.83-4-5.47-4a10.32,10.32,0,0,0-5,1.2,5.79,5.79,0,0,0-2.4,2h-.62l.62-2.58a25.67,25.67,0,0,1,4.77-1.89A17.71,17.71,0,0,1,268,37.5q7.55,0,7.54,5.45a8.79,8.79,0,0,1-.28,2.3Zm-6.8,9.83,1.58-6.74-2.06.37A51.52,51.52,0,0,0,261.58,50q-3.61,1.24-4.29,4a4.65,4.65,0,0,0-.16,1.15q0,3.14,4.63,3.14a7.23,7.23,0,0,0,2.52-.56,11.16,11.16,0,0,0,2.4-1.2,8.37,8.37,0,0,0,.92-.62A3,3,0,0,0,268.47,55.08Z"/><path class="cls-1" d="M305.48,37.92l-5.19,22-2.12-.19-2.32.2L298,50.65h-4.05l-10,9.24-2.53-.21-2.64.19,10.61-9.41a11.07,11.07,0,0,1-4-1.25,4.44,4.44,0,0,1-2.45-4,4.39,4.39,0,0,1,.08-.81c.06-.32.1-.58.14-.76a6.49,6.49,0,0,1,3.13-4.11,10.43,10.43,0,0,1,5.64-1.61Zm-7,10.89,2.09-9.05-6.53,0a7.39,7.39,0,0,0-4.15,1.22,5.36,5.36,0,0,0-2.37,3.35,9.37,9.37,0,0,0-.11,1q0,2.18,3,3a21.51,21.51,0,0,0,5.59.56Z"/><path class="cls-1" d="M64.86,112.76l-2.23-.18-2.21.19,7.93-34,2.23.19,2.23-.19-1,4.38a14.76,14.76,0,0,1,3.35-2.92,14.12,14.12,0,0,1,7.31-1.78,9.24,9.24,0,0,1,6.76,2.35,7.77,7.77,0,0,1,2.23,5.77c0,.4,0,.81,0,1.24a7.39,7.39,0,0,1-.23,1.3A15.67,15.67,0,0,1,85.8,98a14.75,14.75,0,0,1-9.52,3.25q-5.82,0-7.54-4.43l-3.88,15.91Zm5.22-22.28a12.46,12.46,0,0,0-.34,2.82,6,6,0,0,0,1.59,4.4,6.52,6.52,0,0,0,4.89,1.64,8.54,8.54,0,0,0,6.64-3,15.47,15.47,0,0,0,3.35-7,12.71,12.71,0,0,0,.4-3.18,5.84,5.84,0,0,0-1.29-4.06,6,6,0,0,0-4.69-1.66,9.22,9.22,0,0,0-7.26,3.41A14.75,14.75,0,0,0,70.08,90.48Z"/><path class="cls-1" d="M95.15,89.7a13,13,0,0,1,5.92-8,19.39,19.39,0,0,1,10.83-3.09q5,0,7.82,2.26a7.59,7.59,0,0,1,2.84,6.28,12.57,12.57,0,0,1-.33,2.72,13.64,13.64,0,0,1-5.36,7.93,18.14,18.14,0,0,1-11.28,3.51A12.83,12.83,0,0,1,97.69,99a7.31,7.31,0,0,1-3-6.16,10.68,10.68,0,0,1,.5-3.14ZM111.47,80a10.48,10.48,0,0,0-8,3.32,15,15,0,0,0-3.57,7.06c-.11.52-.2,1-.28,1.48a9.52,9.52,0,0,0-.11,1.43A6.58,6.58,0,0,0,101,97.87a6.81,6.81,0,0,0,5.34,2A9.79,9.79,0,0,0,114,96.11a14.51,14.51,0,0,0,3.34-6.5c.12-.53.21-1,.28-1.52a9.92,9.92,0,0,0,.11-1.57A7,7,0,0,0,116.36,82,5.83,5.83,0,0,0,111.47,80Z"/><path class="cls-1" d="M146.18,84.21a5.34,5.34,0,0,1-2.34,3.23,10,10,0,0,1-4.47,1.61,9.84,9.84,0,0,1,4.3,1.25,3.69,3.69,0,0,1,1.84,3.32,4.45,4.45,0,0,1-.17,1.2q-.72,3.09-4.74,4.89a19.38,19.38,0,0,1-8,1.57q-5.81,0-8.43-1.48c.49-.73.84-1.29,1.06-1.66a10.41,10.41,0,0,0,.9-1.7h.44a5.11,5.11,0,0,0,2.18,2.46,8,8,0,0,0,4.19.95,8.37,8.37,0,0,0,4.77-1.36A5.7,5.7,0,0,0,140.26,95a5,5,0,0,0,.17-1.2,3.12,3.12,0,0,0-1.4-2.73,6.81,6.81,0,0,0-3.9-1h-3.86l.45-1.79h3.82a6.18,6.18,0,0,0,3.76-1.16,5.06,5.06,0,0,0,2-3,5.81,5.81,0,0,0,.12-.88,3,3,0,0,0-1.13-2.4,4.73,4.73,0,0,0-3.08-.92,8.7,8.7,0,0,0-4.1.92,6.65,6.65,0,0,0-2.36,2.13h-.5a8,8,0,0,0-.14-1.53,15.74,15.74,0,0,0-.48-1.75,12.18,12.18,0,0,1,2.74-.78,32.47,32.47,0,0,1,5.64-.42A13.66,13.66,0,0,1,144,79.71a3.69,3.69,0,0,1,2.31,3.48A7,7,0,0,1,146.18,84.21Z"/><path class="cls-1" d="M172.87,86.33,170.36,97a6,6,0,0,0-.28,1.45c0,.55.41.82,1.23.82a12.09,12.09,0,0,0,1.67-.14l-.22,1-.87.23a10.31,10.31,0,0,1-1.31.28,10.13,10.13,0,0,1-1.45.09,4,4,0,0,1-2.46-.64,2.57,2.57,0,0,1-.83-2.17l-.62.41a15.37,15.37,0,0,1-8.93,2.91,7.9,7.9,0,0,1-4.53-1.22,3.81,3.81,0,0,1-1.78-3.3,3.57,3.57,0,0,1,.17-1.11,7,7,0,0,1,4.41-5A32.3,32.3,0,0,1,162.09,89a27.74,27.74,0,0,0,4.81-.92,3,3,0,0,0,1.84-2.17,7.09,7.09,0,0,0,.17-1.43q0-4-5.48-4a10.28,10.28,0,0,0-5,1.2,5.69,5.69,0,0,0-2.41,2h-.61l.61-2.58a26,26,0,0,1,4.78-1.89,17.66,17.66,0,0,1,4.77-.65q7.54,0,7.54,5.45a8.84,8.84,0,0,1-.28,2.3Zm-6.8,9.83,1.58-6.74-2.06.36A52.39,52.39,0,0,0,159.18,91q-3.62,1.24-4.29,4a4.71,4.71,0,0,0-.17,1.15q0,3.14,4.64,3.14a7.28,7.28,0,0,0,2.52-.56,11.64,11.64,0,0,0,2.4-1.2,10.49,10.49,0,0,0,.92-.62A3,3,0,0,0,166.07,96.16Z"/><path class="cls-1" d="M29.31,74.82Zm19.2,31.8.3-1.6a15.67,15.67,0,0,0-.61-7.3c-1.76-5.82-8.33-12.2-13-16.59-2.44-2.29-4.06-3.3-4.45-5.45-.7-4-2.24-12,1.56-15.19l-1-.9c-1.78,2.31-2.81,4.16-2.64,7.63.07,1.44.1,2.51.24,4a19.5,19.5,0,0,1,.35,3.62,25.58,25.58,0,0,1-4.42-5.77A34.56,34.56,0,0,1,22,62.34c-1.42-4.39-1.39-7.93-.52-12.65.22-1.17.29-3.39,1.19-4.29.72-3.85,3.36-7,5.07-9.91-.27-.18.34-.37-1.19-.35-.64,1.54-2.12,3.41-3.06,5.11-5.31,9.55-4.77,19-.13,28,2.16,4.18,3,4.75,6,8.34A41.09,41.09,0,0,0,33,80.48a101.47,101.47,0,0,1,10.77,11.2c8.34,10.93,1.16,19.77,1.6,21.41,1.46-.12,1,.31,2.17-3.1A24.76,24.76,0,0,0,48.51,106.62Z"/><path class="cls-1" d="M29.28,24.4c-.5,2.68-.44,2.82,1.44,4.69.71.71.82.36,1,1.47l-10-1.07c-1.46-.21-3.6-3.84-3.33-5.27,0,0,2.14-5.53,4.88-5.14C25.48,19.4,26.42,23.37,29.28,24.4Z"/><path class="cls-1" d="M43.28,35.64c-.92,4.94-9.27,6.5-12-.68,1.05-1,2.28-2,2.66-3.74,4.22.6,3.38-1.12,5.68.83A7.47,7.47,0,0,0,42,33.5C43.22,34.11,43.56,34.16,43.28,35.64Z"/><path class="cls-1" d="M18.19,50.26c-.37.06.11,1-.64-.73a6,6,0,0,0-.64-1.41A5.91,5.91,0,0,0,14.66,46c.29,2.51,3.74,3.12,2.9,7.61-2.31-.82-5.09-4.55-6.08-6.49-1.65-3.23-1.48-5.56-.61-10.23,1.36,1.12,1.3,3,4.74,6.15C17.24,44.52,19.17,49,18.19,50.26Z"/><path class="cls-1" d="M41.41,28.85a7.64,7.64,0,0,1-11-.76c-.78-.95-1.66-3.76.75-3.42,2.1.29,1.4,1.14,2.78,1.23C34.58,25.94,41,24,41.41,28.85Z"/><path class="cls-1" d="M46.64,32.34c-1.82-.26-1.54,1.15-3.69.85-1.83-.26-2.11-1.3-3.57-1.88a7.07,7.07,0,0,1,3.36-2.06c1.08-.24,2.73-.16,4.19-1.07s.89-1.85,2.36-1.64c1.75.25,4.16,5.4.81,6.32C48.68,33.25,48.28,32.57,46.64,32.34Z"/><path class="cls-1" d="M34.59,71.79c-1.41-.17-4.16.39-2.33-1.08,1.43-1.15,2.1-.65,3-2.6C33,69,33.41,70.35,30.5,70.53c.78-1.66.8-2.7,2.13-4s2.71-1.34,3.45-2.78c.08,0,.2.06.22.16l.89.48a11,11,0,0,0,3.1,0c-.12.41-2.45,5.39-3.62,6.26Z"/><path class="cls-1" d="M22.62,45.4l1.91-2.2c1.3-1.11,8-3.07,8.9-3.13a11,11,0,0,1-3.74,5.72A12.62,12.62,0,0,1,23,47.85c2.08-2.4,2.51-1.68,3-3.35-1.85.74-1.7,1.5-3.56,2.24Z"/><path class="cls-1" d="M27.69,35.49c-.27-.18.34-.37-1.19-.35a5.72,5.72,0,0,1-3.44-1.51c-1.58-1.39-1.39-2.05-1.14-3.42,4.31.61,7.44.65,11.22.9a7.53,7.53,0,0,1-3.42,4.06C28.82,35.5,28.77,35.16,27.69,35.49Z"/><path class="cls-1" d="M50,81.52c-3.17-1.15-2.65-.79-5,.91-3,2.17-6.76,1.09-6.53-.14.44-2.39,1.33-3.62,3.16-4.35l-.24,1.33C44.47,78.06,47.59,76.83,50,81.52Z"/><path class="cls-1" d="M42.71,93.52c-3.39-.48-6-.67-8.57-2.87-1.18-1-2.95-2.41-3.12-3.93a25.62,25.62,0,0,1,8.69,2.49C41.8,90.36,45.61,93.93,42.71,93.52Z"/><path class="cls-1" d="M56.85,36.53c-.2,2.31,1.77,3.17,2.64,4.83L56,40.87l-.24,1.34c-5.34-1.16-7.88-7.29-4.62-6.83C53.72,35.74,54.43,36.19,56.85,36.53Z"/><path class="cls-1" d="M57.4,29.4a5.88,5.88,0,0,1-5.09,2c.38-2.39-.38-5.2-3.66-5.66a7.15,7.15,0,0,0-.2-3.12c3.12.44,4.81.67,5.9,2.48C55.72,27.41,54.52,27.51,57.4,29.4Z"/><path class="cls-1" d="M50.47,18.13c-.42,2.25-1.23,2.64-2,4.19-1.9-.75-1.57-2.12-1.16-4.29-3.65,1.08-3.35,1.11-2.57-3.1C45.29,12.23,51.47,12.78,50.47,18.13Z"/><path class="cls-1" d="M35.68,15.35a4,4,0,0,1-.63,1.7c-.81,1.15-.55.51-1.24.95-1.45.92-1.32,1.43-2.25,2.6-.76-.62-3-2.78-2.82-3.83C30.24,8.74,35.85,14.42,35.68,15.35Z"/><path class="cls-1" d="M48,25.32c-.32,1.71-.94,2.13-2.47,2.74-2.07-1.37-2.33-2.51-2.54-4.91-.29-3.23.82-3.17,3.45-4.22C46.86,24.92,48.63,21.68,48,25.32Z"/><path class="cls-1" d="M15.21,53.61c-5.39-.36-6.26,3-8.93,1.53l-.46-.32c-.05,0-.14-.12-.23-.17a18.87,18.87,0,0,1-2.16,1.07c2-4.16,3.19-5,7.12-4.48C12.42,51.5,14.59,52.55,15.21,53.61Z"/><path class="cls-1" d="M42.12,60.85c-4.43-.63-5.09-2.41-3.72-5.33,1.39.5,1.5.94,2.86,1.47,2.48,1,3.87-.72,4.3,1.12a1.38,1.38,0,0,1-.41,1.45A5.12,5.12,0,0,1,42.12,60.85Z"/><path class="cls-1" d="M49.52,48.52a8.92,8.92,0,0,1-1.71,2,4.17,4.17,0,0,1-2.42,1.16c-1.55-1.27-2.15-1.22-2.37-4.11C44.8,47.45,47.43,44.53,49.52,48.52Z"/><path class="cls-1" d="M25.42,72.55c-1,2-3.83,2.2-6.24,1.86.74-1.54.36-.48.19-1A11.61,11.61,0,0,1,16,72.59C19.16,69.86,23.18,71.75,25.42,72.55Z"/><path class="cls-1" d="M48.57,36.73c-.76,4.11-2.23,1.17-.16,5.12-3-1.06-5.9-6-2.14-7.51C47.36,34.74,48.79,35.59,48.57,36.73Z"/><path class="cls-1" d="M50.63,55.2a5.63,5.63,0,0,1-3.1,4c-2.07-1.37-2-3-1-4.95C48,54.18,51,53.5,50.63,55.2Z"/><path class="cls-1" d="M32.31,60.49l-1-.9c-1-1.61-1-2,.29-3.65,1.18,1.05.12,1.57,1.85,2.67A14.47,14.47,0,0,0,38,59.92c-.31,1.71-.2,2-2.26,1.8A8.59,8.59,0,0,1,32.31,60.49Z"/><path class="cls-2" d="M55.58,32l-.19-.16L55,31.49l-.18.18c-3.66,3.28-7.13,2.87,1.78,4.14.42-2.3,1.13-2.25,1.89-3.85C56,31.79,57,33.2,55.58,32Z"/><path class="cls-1" d="M42.45,63.3c-3.31-.47-4.09-.93-3.77-2.94,2.09.75,5.72,2,7.25-1l.77.11A3.55,3.55,0,0,1,42.45,63.3Z"/><path class="cls-1" d="M44.21,28.56c-4.71.31-.1-2-4.92-3.09.45-2.42.42-4.2,3.1-4C41.56,25.92,44,26.62,44.21,28.56Z"/><path class="cls-1" d="M34.26,25.1c-.69.17.09.22-.78-.13-5.06-2-5.6.64-4.47-5.41,1.43.51,2,1.29,3.32,2.62.52.52.85,1,1.33,1.55C34.9,25.23,34.41,24.89,34.26,25.1Z"/><path class="cls-1" d="M34.59,71.79c2.89.2,3.22-.48,5.67,1.15a6.33,6.33,0,0,1-3.64,1.76c-2.14.17-3.12-1-4.64-1.56Z"/><path class="cls-1" d="M32.26,50.54c-.37,1.31-.53.75-.69,1.62-.22,1.16,1.21,4.05-1.07,3.09C27.33,53.91,28.13,47.49,32.26,50.54Z"/><path class="cls-1" d="M40.93,20.9c-.93.86-.86.34-1.46,1.51a5.21,5.21,0,0,1-3.66-5.66C38,17.21,40.34,19.78,40.93,20.9Z"/><path class="cls-1" d="M44.14,14.15l-.56,3c-1.29-.86-.73-.58-2.54-1.05a4.27,4.27,0,0,1-2.5-1.38C41.1,11.77,42.09,12.79,44.14,14.15Z"/><path class="cls-1" d="M45.22,56.83c-3.3-.46-4.48.45-5.87-2.2,2.49.35,4.08.23,4.65-1.74l1.91.27Z"/><path class="cls-1" d="M44.47,46.09l-.12.67c-2,.6-1.9.42-4.33.08-.79-1.51-1-.81-.77-2.17.78-.2,1.07-.08,1.8-.27,1.27-.33,1.51-1.51,2.76.34C43.81,44.75,44.48,46.07,44.47,46.09Z"/><path class="cls-1" d="M27.75,22.12c-2.8-1.09-3-6.35.35-6.12C28.53,21.56,28.9,15.92,27.75,22.12Z"/><path class="cls-1" d="M38.61,46c-1.26,2.68-.76,1.23-2.85,2.27-2.29,1.13-.31,2.22-2.73,2.43.32-1.71.24-2.28,1.26-3.39C36.24,45.12,37.2,45.22,38.61,46Z"/><path class="cls-1" d="M39,23l-.37,2-3.13-.1c-.79-1.52-1.07-.57-.64-2.84C36.9,21.55,37.25,21.89,39,23Z"/><path class="cls-1" d="M32.45,49.54c-2.92-1.15,0-4.5.22-4.65.91-.74,1.88-.54,3.45-.32C35.27,46.23,33.08,46.15,32.45,49.54Z"/><path class="cls-1" d="M44,19.27c-4.41,4.13-5.83-6-1-1.73C43.79,18.25,43.65,18.43,44,19.27Z"/><path class="cls-1" d="M37,59.09c-2.53-.36-4.27-1.27-4.09-3.32l4.27.26C36.82,57.71,37.19,57.57,37,59.09Z"/><path class="cls-1" d="M50.36,52.41l-.12.67c-3.12,1.25-3.28.55-4.27-.26.48-.93,3.32-2.75,3.68-2.91C50.07,50.72,50.59,51.19,50.36,52.41Z"/><path class="cls-1" d="M36.81,55.64c-1.42-.86-1.39-.2-4.21-.59C30.41,48.52,36.6,53.84,36.81,55.64Z"/><path class="cls-1" d="M36.15,21.25c-1.62.1-1.61.09-2.22,1.4-2.23-.87-1.94-1.95-.72-3.33.79-.9.7-.85,1.91-1C35.28,19.74,36,19.87,36.15,21.25Z"/><path class="cls-1" d="M39,54.24c0,.2-.65.62-1,.89-1.66-1.35-.58-.88-3.41-2.86-1.57-1.09-.68,0-.94-1.18C36.42,51.47,39.45,52,39,54.24Z"/><path class="cls-1" d="M39.14,49.45c-1.38,2.69-3.5,1.45-4.52,1.08C35.9,47.8,38,48.14,39.14,49.45Z"/><path class="cls-1" d="M42.58,49.94c-3.44-.49-1.58-.35-2.74,0C39.09,48,39.1,49,38.3,47.62c1.17-1.27,1.14-.51,2.41-.07C42.49,48.18,42.77,47.8,42.58,49.94Z"/><path class="cls-1" d="M39.82,16.28c-.46.56-.37.38-.63,1.29-4.53-1.63-2.32-2.73-1.86-2.67C38.23,15,38.34,15.75,39.82,16.28Z"/><path class="cls-1" d="M41.44,51.84l-1.71,1.21-1.45-1.58c.39-.34.91-1,1.44-.91A2.15,2.15,0,0,1,41.44,51.84Z"/><path class="cls-1" d="M40.24,54.07c.68-1.44,1.06-1.42,3-1.29C42.79,54.31,42.07,54.29,40.24,54.07Z"/><path class="cls-1" d="M44.12,52.22c-1.69-.28-1.79-.15-1.66-1.61C43.94,50.93,44,51,44.12,52.22Z"/><path class="cls-1" d="M42,50.89c-1.07-.39-.56,0-1-.83l1.15.16Z"/><path class="cls-1" d="M29.31,74.82Zm19.2,31.8.3-1.6a15.67,15.67,0,0,0-.61-7.3c-1.76-5.82-8.33-12.2-13-16.59-2.44-2.29-4.06-3.3-4.45-5.45-.7-4-2.24-12,1.56-15.19l-1-.9c-1.78,2.31-2.81,4.16-2.64,7.63.07,1.44.1,2.51.24,4a19.5,19.5,0,0,1,.35,3.62,25.58,25.58,0,0,1-4.42-5.77A34.56,34.56,0,0,1,22,62.34c-1.42-4.39-1.39-7.93-.52-12.65.22-1.17.29-3.39,1.19-4.29.72-3.85,3.36-7,5.07-9.91-.27-.18.34-.37-1.19-.35-.64,1.54-2.12,3.41-3.06,5.11-5.31,9.55-4.77,19-.13,28,2.16,4.18,3,4.75,6,8.34A41.09,41.09,0,0,0,33,80.48a101.47,101.47,0,0,1,10.77,11.2c8.34,10.93,1.16,19.77,1.6,21.41,1.46-.12,1,.31,2.17-3.1A24.76,24.76,0,0,0,48.51,106.62Z"/><path class="cls-1" d="M29.28,24.4c-.5,2.68-.44,2.82,1.44,4.69.71.71.82.36,1,1.47l-10-1.07c-1.46-.21-3.6-3.84-3.33-5.27,0,0,2.14-5.53,4.88-5.14C25.48,19.4,26.42,23.37,29.28,24.4Z"/><path class="cls-1" d="M43.28,35.64c-.92,4.94-9.27,6.5-12-.68,1.05-1,2.28-2,2.66-3.74,4.22.6,3.38-1.12,5.68.83A7.47,7.47,0,0,0,42,33.5C43.22,34.11,43.56,34.16,43.28,35.64Z"/><path class="cls-1" d="M18.19,50.26c-.37.06.11,1-.64-.73a6,6,0,0,0-.64-1.41A5.91,5.91,0,0,0,14.66,46c.29,2.51,3.74,3.12,2.9,7.61-2.31-.82-5.09-4.55-6.08-6.49-1.65-3.23-1.48-5.56-.61-10.23,1.36,1.12,1.3,3,4.74,6.15C17.24,44.52,19.17,49,18.19,50.26Z"/><path class="cls-1" d="M41.41,28.85a7.64,7.64,0,0,1-11-.76c-.78-.95-1.66-3.76.75-3.42,2.1.29,1.4,1.14,2.78,1.23C34.58,25.94,41,24,41.41,28.85Z"/><path class="cls-1" d="M46.64,32.34c-1.82-.26-1.54,1.15-3.69.85-1.83-.26-2.11-1.3-3.57-1.88a7.07,7.07,0,0,1,3.36-2.06c1.08-.24,2.73-.16,4.19-1.07s.89-1.85,2.36-1.64c1.75.25,4.16,5.4.81,6.32C48.68,33.25,48.28,32.57,46.64,32.34Z"/><path class="cls-1" d="M34.59,71.79c-1.41-.17-4.16.39-2.33-1.08,1.43-1.15,2.1-.65,3-2.6C33,69,33.41,70.35,30.5,70.53c.78-1.66.8-2.7,2.13-4s2.71-1.34,3.45-2.78c.08,0,.2.06.22.16l.89.48a11,11,0,0,0,3.1,0c-.12.41-2.45,5.39-3.62,6.26Z"/><path class="cls-1" d="M22.62,45.4l1.91-2.2c1.3-1.11,8-3.07,8.9-3.13a11,11,0,0,1-3.74,5.72A12.62,12.62,0,0,1,23,47.85c2.08-2.4,2.51-1.68,3-3.35-1.85.74-1.7,1.5-3.56,2.24Z"/><path class="cls-1" d="M27.69,35.49c-.27-.18.34-.37-1.19-.35a5.72,5.72,0,0,1-3.44-1.51c-1.58-1.39-1.39-2.05-1.14-3.42,4.31.61,7.44.65,11.22.9a7.53,7.53,0,0,1-3.42,4.06C28.82,35.5,28.77,35.16,27.69,35.49Z"/><path class="cls-1" d="M50,81.52c-3.17-1.15-2.65-.79-5,.91-3,2.17-6.76,1.09-6.53-.14.44-2.39,1.33-3.62,3.16-4.35l-.24,1.33C44.47,78.06,47.59,76.83,50,81.52Z"/><path class="cls-1" d="M42.71,93.52c-3.39-.48-6-.67-8.57-2.87-1.18-1-2.95-2.41-3.12-3.93a25.62,25.62,0,0,1,8.69,2.49C41.8,90.36,45.61,93.93,42.71,93.52Z"/><path class="cls-1" d="M56.85,36.53c-.2,2.31,1.77,3.17,2.64,4.83L56,40.87l-.24,1.34c-5.34-1.16-7.88-7.29-4.62-6.83C53.72,35.74,54.43,36.19,56.85,36.53Z"/><path class="cls-1" d="M57.4,29.4a5.88,5.88,0,0,1-5.09,2c.38-2.39-.38-5.2-3.66-5.66a7.15,7.15,0,0,0-.2-3.12c3.12.44,4.81.67,5.9,2.48C55.72,27.41,54.52,27.51,57.4,29.4Z"/><path class="cls-1" d="M50.47,18.13c-.42,2.25-1.23,2.64-2,4.19-1.9-.75-1.57-2.12-1.16-4.29-3.65,1.08-3.35,1.11-2.57-3.1C45.29,12.23,51.47,12.78,50.47,18.13Z"/><path class="cls-1" d="M35.68,15.35a4,4,0,0,1-.63,1.7c-.81,1.15-.55.51-1.24.95-1.45.92-1.32,1.43-2.25,2.6-.76-.62-3-2.78-2.82-3.83C30.24,8.74,35.85,14.42,35.68,15.35Z"/><path class="cls-1" d="M48,25.32c-.32,1.71-.94,2.13-2.47,2.74-2.07-1.37-2.33-2.51-2.54-4.91-.29-3.23.82-3.17,3.45-4.22C46.86,24.92,48.63,21.68,48,25.32Z"/><path class="cls-1" d="M15.21,53.61c-5.39-.36-6.26,3-8.93,1.53l-.46-.32c-.05,0-.14-.12-.23-.17a18.87,18.87,0,0,1-2.16,1.07c2-4.16,3.19-5,7.12-4.48C12.42,51.5,14.59,52.55,15.21,53.61Z"/><path class="cls-1" d="M42.12,60.85c-4.43-.63-5.09-2.41-3.72-5.33,1.39.5,1.5.94,2.86,1.47,2.48,1,3.87-.72,4.3,1.12a1.38,1.38,0,0,1-.41,1.45A5.12,5.12,0,0,1,42.12,60.85Z"/><path class="cls-1" d="M49.52,48.52a8.92,8.92,0,0,1-1.71,2,4.17,4.17,0,0,1-2.42,1.16c-1.55-1.27-2.15-1.22-2.37-4.11C44.8,47.45,47.43,44.53,49.52,48.52Z"/><path class="cls-1" d="M25.42,72.55c-1,2-3.83,2.2-6.24,1.86.74-1.54.36-.48.19-1A11.61,11.61,0,0,1,16,72.59C19.16,69.86,23.18,71.75,25.42,72.55Z"/><path class="cls-1" d="M48.57,36.73c-.76,4.11-2.23,1.17-.16,5.12-3-1.06-5.9-6-2.14-7.51C47.36,34.74,48.79,35.59,48.57,36.73Z"/><path class="cls-1" d="M50.63,55.2a5.63,5.63,0,0,1-3.1,4c-2.07-1.37-2-3-1-4.95C48,54.18,51,53.5,50.63,55.2Z"/><path class="cls-1" d="M32.31,60.49l-1-.9c-1-1.61-1-2,.29-3.65,1.18,1.05.12,1.57,1.85,2.67A14.47,14.47,0,0,0,38,59.92c-.31,1.71-.2,2-2.26,1.8A8.59,8.59,0,0,1,32.31,60.49Z"/><path class="cls-1" d="M42.45,63.3c-3.31-.47-4.09-.93-3.77-2.94,2.09.75,5.72,2,7.25-1l.77.11A3.55,3.55,0,0,1,42.45,63.3Z"/><path class="cls-1" d="M44.21,28.56c-4.71.31-.1-2-4.92-3.09.45-2.42.42-4.2,3.1-4C41.56,25.92,44,26.62,44.21,28.56Z"/><path class="cls-1" d="M34.26,25.1c-.69.17.09.22-.78-.13-5.06-2-5.6.64-4.47-5.41,1.43.51,2,1.29,3.32,2.62.52.52.85,1,1.33,1.55C34.9,25.23,34.41,24.89,34.26,25.1Z"/><path class="cls-1" d="M34.59,71.79c2.89.2,3.22-.48,5.67,1.15a6.33,6.33,0,0,1-3.64,1.76c-2.14.17-3.12-1-4.64-1.56Z"/><path class="cls-1" d="M32.26,50.54c-.37,1.31-.53.75-.69,1.62-.22,1.16,1.21,4.05-1.07,3.09C27.33,53.91,28.13,47.49,32.26,50.54Z"/><path class="cls-1" d="M40.93,20.9c-.93.86-.86.34-1.46,1.51a5.21,5.21,0,0,1-3.66-5.66C38,17.21,40.34,19.78,40.93,20.9Z"/><path class="cls-1" d="M44.14,14.15l-.56,3c-1.29-.86-.73-.58-2.54-1.05a4.27,4.27,0,0,1-2.5-1.38C41.1,11.77,42.09,12.79,44.14,14.15Z"/><path class="cls-1" d="M45.22,56.83c-3.3-.46-4.48.45-5.87-2.2,2.49.35,4.08.23,4.65-1.74l1.91.27Z"/><path class="cls-1" d="M44.47,46.09l-.12.67c-2,.6-1.9.42-4.33.08-.79-1.51-1-.81-.77-2.17.78-.2,1.07-.08,1.8-.27,1.27-.33,1.51-1.51,2.76.34C43.81,44.75,44.48,46.07,44.47,46.09Z"/><path class="cls-1" d="M27.75,22.12c-2.8-1.09-3-6.35.35-6.12C28.53,21.56,28.9,15.92,27.75,22.12Z"/><path class="cls-1" d="M38.61,46c-1.26,2.68-.76,1.23-2.85,2.27-2.29,1.13-.31,2.22-2.73,2.43.32-1.71.24-2.28,1.26-3.39C36.24,45.12,37.2,45.22,38.61,46Z"/><path class="cls-1" d="M39,23l-.37,2-3.13-.1c-.79-1.52-1.07-.57-.64-2.84C36.9,21.55,37.25,21.89,39,23Z"/><path class="cls-1" d="M32.45,49.54c-2.92-1.15,0-4.5.22-4.65.91-.74,1.88-.54,3.45-.32C35.27,46.23,33.08,46.15,32.45,49.54Z"/><path class="cls-1" d="M44,19.27c-4.41,4.13-5.83-6-1-1.73C43.79,18.25,43.65,18.43,44,19.27Z"/><path class="cls-1" d="M37,59.09c-2.53-.36-4.27-1.27-4.09-3.32l4.27.26C36.82,57.71,37.19,57.57,37,59.09Z"/><path class="cls-1" d="M50.36,52.41l-.12.67c-3.12,1.25-3.28.55-4.27-.26.48-.93,3.32-2.75,3.68-2.91C50.07,50.72,50.59,51.19,50.36,52.41Z"/><path class="cls-1" d="M36.81,55.64c-1.42-.86-1.39-.2-4.21-.59C30.41,48.52,36.6,53.84,36.81,55.64Z"/><path class="cls-1" d="M36.15,21.25c-1.62.1-1.61.09-2.22,1.4-2.23-.87-1.94-1.95-.72-3.33.79-.9.7-.85,1.91-1C35.28,19.74,36,19.87,36.15,21.25Z"/><path class="cls-1" d="M39,54.24c0,.2-.65.62-1,.89-1.66-1.35-.58-.88-3.41-2.86-1.57-1.09-.68,0-.94-1.18C36.42,51.47,39.45,52,39,54.24Z"/><path class="cls-1" d="M39.14,49.45c-1.38,2.69-3.5,1.45-4.52,1.08C35.9,47.8,38,48.14,39.14,49.45Z"/><path class="cls-1" d="M42.58,49.94c-3.44-.49-1.58-.35-2.74,0C39.09,48,39.1,49,38.3,47.62c1.17-1.27,1.14-.51,2.41-.07C42.49,48.18,42.77,47.8,42.58,49.94Z"/><path class="cls-1" d="M39.82,16.28c-.46.56-.37.38-.63,1.29-4.53-1.63-2.32-2.73-1.86-2.67C38.23,15,38.34,15.75,39.82,16.28Z"/><path class="cls-1" d="M41.44,51.84l-1.71,1.21-1.45-1.58c.39-.34.91-1,1.44-.91A2.15,2.15,0,0,1,41.44,51.84Z"/><path class="cls-1" d="M40.24,54.07c.68-1.44,1.06-1.42,3-1.29C42.79,54.31,42.07,54.29,40.24,54.07Z"/><path class="cls-1" d="M44.12,52.22c-1.69-.28-1.79-.15-1.66-1.61C43.94,50.93,44,51,44.12,52.22Z"/><path class="cls-1" d="M42,50.89c-1.07-.39-.56,0-1-.83l1.15.16Z"/></svg>