<svg width="20" height="20" viewBox="0 0 20 20" fill="none" xmlns="http://www.w3.org/2000/svg">
<path d="M18.1894 8.85763V6.22559C18.1887 5.64644 17.9584 5.09119 17.5489 4.68166C17.1393 4.27214 16.5841 4.04179 16.0049 4.04114H15.4442V3.48053C15.4435 2.90138 15.2132 2.34613 14.8037 1.93661C14.3941 1.52709 13.8389 1.29673 13.2597 1.29608H2.9657C2.38654 1.29673 1.8313 1.52709 1.42177 1.93661C1.01225 2.34613 0.781898 2.90138 0.78125 3.48053V16.5195C0.781898 17.0986 1.01225 17.6539 1.42177 18.0634C1.8313 18.4729 2.38654 18.7033 2.9657 18.7039H16.0049C16.5841 18.7033 17.1393 18.4729 17.5489 18.0634C17.9584 17.6539 18.1887 17.0986 18.1894 16.5195V13.8874C18.4715 13.8571 18.7325 13.7238 18.9224 13.513C19.1123 13.3022 19.2178 13.0288 19.2188 12.7451V10C19.2178 9.71628 19.1123 9.44285 18.9224 9.23208C18.7325 9.0213 18.4715 8.88798 18.1894 8.85763ZM16.0049 17.7664H2.9657C2.6351 17.766 2.31815 17.6345 2.08439 17.4008C1.85062 17.167 1.71913 16.8501 1.71875 16.5195V3.48053C1.71913 3.14994 1.85062 2.83299 2.08439 2.59922C2.31815 2.36545 2.6351 2.23396 2.9657 2.23358H13.2597C13.5903 2.23396 13.9073 2.36545 14.141 2.59922C14.3748 2.83299 14.5063 3.14994 14.5067 3.48053V4.04114H3.99506C3.87192 4.04294 3.75444 4.09312 3.668 4.18083C3.58156 4.26855 3.53311 4.38675 3.53311 4.5099C3.53312 4.63305 3.58158 4.75125 3.66802 4.83896C3.75446 4.92667 3.87194 4.97684 3.99508 4.97864C4.29008 4.97531 16.1612 4.98104 16.005 4.97864C16.3356 4.97903 16.6525 5.11053 16.8863 5.34429C17.12 5.57806 17.2515 5.895 17.2519 6.22559V8.84492H15.3186C11.9686 8.97236 11.9724 13.7746 15.3186 13.9002H17.2519V16.5195C17.2515 16.8501 17.12 17.167 16.8863 17.4008C16.6525 17.6345 16.3355 17.766 16.0049 17.7664ZM18.2812 12.7451C18.2812 12.8027 18.2582 12.858 18.2174 12.8988C18.1766 12.9396 18.1213 12.9626 18.0637 12.9626H15.3186C14.8969 12.9626 14.4924 12.7951 14.1942 12.4969C13.896 12.1987 13.7285 11.7943 13.7285 11.3725C13.7285 10.9508 13.896 10.5463 14.1942 10.2481C14.4924 9.94994 14.8969 9.78241 15.3186 9.78241H18.0637C18.1213 9.78249 18.1766 9.80544 18.2174 9.84623C18.2582 9.88702 18.2812 9.94232 18.2812 10V12.7451Z" fill="#81868F"/>
</svg>
