<svg width="22" height="22" viewBox="0 0 22 22" fill="none" xmlns="http://www.w3.org/2000/svg">
<path d="M21.1136 0.885875C20.7326 0.504188 20.1143 0.504188 19.7332 0.885875L0.89346 19.7326C0.512076 20.1139 0.512076 20.732 0.89346 21.1133C1.08407 21.3042 1.33399 21.3996 1.58375 21.3996C1.83351 21.3996 2.08344 21.3042 2.27388 21.1133L21.1136 2.26665C21.495 1.88528 21.495 1.26724 21.1136 0.885875Z" fill="#CD5554"/>
<path d="M5.23666 0.607422C2.67991 0.607422 0.599609 2.68866 0.599609 5.24635C0.599609 7.80405 2.67991 9.88512 5.23666 9.88512C7.79357 9.88512 9.87372 7.80389 9.87372 5.24619C9.87372 2.6885 7.79341 0.607422 5.23666 0.607422ZM5.23666 7.93182C3.7563 7.93182 2.55203 6.72694 2.55203 5.24619C2.55203 3.76545 3.75646 2.56056 5.23666 2.56056C6.71702 2.56056 7.9213 3.76545 7.9213 5.24619C7.9213 6.72694 6.71702 7.93182 5.23666 7.93182Z" fill="#CD5554"/>
<path d="M16.7621 12.1211C14.2053 12.1211 12.125 14.2022 12.125 16.7599C12.125 19.3176 14.2053 21.3986 16.7621 21.3986C19.3188 21.3986 21.3991 19.3177 21.3991 16.7599C21.3991 14.202 19.3188 12.1211 16.7621 12.1211ZM16.7621 19.4453C15.2817 19.4453 14.0774 18.2404 14.0774 16.7597C14.0774 15.279 15.2819 14.0741 16.7621 14.0741C18.2423 14.0741 19.4467 15.279 19.4467 16.7597C19.4467 18.2404 18.2424 19.4453 16.7621 19.4453Z" fill="#CD5554"/>
</svg>
