<svg width="24" height="24" viewBox="0 0 24 24" fill="none" xmlns="http://www.w3.org/2000/svg">
<path d="M24 1.45312H0V8.48438H1.45312V22.5469H22.5469V8.48438H24V1.45312ZM21.1406 21.1406H2.85938V8.48438H21.1406V21.1406ZM22.5938 7.07812H1.40625V2.85938H22.5938V7.07812Z" fill="#166EB4"/>
<path d="M9.1875 14.1094H14.8125C15.9756 14.1094 16.9219 13.1631 16.9219 12C16.9219 10.8369 15.9756 9.89062 14.8125 9.89062H9.1875C8.02439 9.89062 7.07812 10.8369 7.07812 12C7.07812 13.1631 8.02439 14.1094 9.1875 14.1094ZM9.1875 11.2969H14.8125C15.2002 11.2969 15.5156 11.6123 15.5156 12C15.5156 12.3877 15.2002 12.7031 14.8125 12.7031H9.1875C8.7998 12.7031 8.48438 12.3877 8.48438 12C8.48438 11.6123 8.7998 11.2969 9.1875 11.2969Z" fill="#166EB4"/>
</svg>
