<svg width="20" height="20" viewBox="0 0 20 20" fill="none" xmlns="http://www.w3.org/2000/svg">
<g clip-path="url(#clip0_2840_45139)">
<path d="M18.4809 6.5291L13.6025 6.1786C13.5006 6.17044 13.4109 6.10931 13.3742 6.0115L11.5158 1.4876C11.259 0.864033 10.6803 0.476852 10.0037 0.476852C9.32717 0.476852 8.75251 0.864033 8.49167 1.49167L6.62913 6.01965C6.58838 6.11339 6.50279 6.1786 6.4009 6.18675L1.53057 6.53725C0.870327 6.57393 0.307896 7.00594 0.0918903 7.64173C-0.128191 8.28567 0.05521 8.96222 0.576885 9.40646L4.3468 12.5202C4.42424 12.5854 4.46092 12.6914 4.43647 12.7892L3.28715 17.4924C3.15266 17.9815 3.24639 18.4869 3.54391 18.8822C3.84958 19.2816 4.32642 19.5221 4.82772 19.5221C5.13747 19.5221 5.43906 19.4283 5.68767 19.2612L9.80809 16.6977C9.89368 16.6447 10.0037 16.6447 10.0893 16.6977L14.2505 19.2531C14.5113 19.4283 14.8129 19.5221 15.1186 19.5221C15.5873 19.5221 16.0519 19.2979 16.3535 18.9189C16.6673 18.5276 16.7814 18.0182 16.6673 17.5087L15.5139 12.7933C15.4895 12.6914 15.5261 12.5854 15.6036 12.5202L19.4305 9.39831C19.9441 8.95814 20.1275 8.2816 19.9115 7.63766C19.6995 7.00186 19.133 6.56578 18.4809 6.5291ZM18.7948 8.62802L14.9759 11.7458C14.601 12.0515 14.4298 12.5569 14.548 13.0297L15.7014 17.737C15.7625 18.0141 15.6525 18.2056 15.5791 18.2953C15.465 18.438 15.2938 18.5276 15.1227 18.5276C15.0167 18.5276 14.9107 18.495 14.7966 18.4176L10.6191 15.85C10.4194 15.7277 10.1912 15.6625 9.95481 15.6625C9.71842 15.6625 9.48612 15.7277 9.28641 15.854L5.14969 18.4257C4.88478 18.601 4.5302 18.5235 4.34273 18.279C4.26529 18.1771 4.18378 18.0019 4.25714 17.7451L5.41053 13.0256C5.52465 12.5569 5.35755 12.0556 4.98667 11.7499L1.2249 8.64025C0.927385 8.38349 1.0089 8.05336 1.0415 7.95963C1.07411 7.86589 1.2086 7.55207 1.59986 7.53169L6.47833 7.18119C6.95925 7.14451 7.37496 6.84699 7.55836 6.39868L9.42091 1.8707C9.5717 1.5039 9.90998 1.47537 10.0078 1.47537C10.1056 1.47537 10.4439 1.5039 10.5947 1.8707L12.4572 6.39868C12.6406 6.84699 13.0563 7.14451 13.5372 7.18119L18.4239 7.53577C18.807 7.55614 18.9415 7.86996 18.9741 7.9637C18.9985 8.04929 19.08 8.37941 18.7948 8.62802Z" fill="#81868F"/>
</g>
<defs>
<clipPath id="clip0_2840_45139">
<rect width="20" height="20" fill="white"/>
</clipPath>
</defs>
</svg>
