<svg width="26" height="26" viewBox="0 0 26 26" fill="none" xmlns="http://www.w3.org/2000/svg">
<g opacity="0.9">
<path d="M13 26C20.1797 26 26 20.1797 26 13C26 5.8203 20.1797 0 13 0C5.8203 0 0 5.8203 0 13C0 20.1797 5.8203 26 13 26Z" fill="#40B0EF"/>
<path d="M19.935 7.91301C19.8973 8.25214 19.8219 8.62895 19.7466 8.96808C19.106 11.9826 18.4654 14.9971 17.8249 18.0116C17.7872 18.2 17.7495 18.3507 17.6741 18.5014C17.5234 18.7652 17.2973 18.8405 16.9959 18.7652C16.8075 18.7275 16.6567 18.6521 16.506 18.5391C15.5263 17.8232 14.5843 17.1072 13.6046 16.3913C13.4915 16.3159 13.4162 16.3159 13.3031 16.4289C12.8133 16.8811 12.3611 17.371 11.8712 17.8232C11.6828 18.0116 11.4944 18.1246 11.2306 18.0869C11.0422 18.0869 10.9292 18.0116 10.8915 17.8232C10.5901 16.8811 10.2886 15.9768 9.98717 15.0347C9.87413 14.7333 9.76108 14.3942 9.68572 14.0927C9.64804 13.9797 9.61036 13.9043 9.45963 13.8666C8.5176 13.5652 7.57558 13.2637 6.63355 13C6.5205 12.9623 6.36978 12.9246 6.25673 12.8492C5.99297 12.6985 5.95529 12.4724 6.21905 12.2463C6.36978 12.0956 6.55818 12.0203 6.78427 11.9449C8.06543 11.455 9.34659 10.9652 10.6277 10.4753C13.4162 9.42025 16.1669 8.3275 18.9553 7.27243C18.993 7.27243 18.993 7.27243 19.0306 7.23475C19.5205 7.04634 19.935 7.31011 19.935 7.91301ZM11.2306 17.2203C11.2683 17.1826 11.2683 17.1449 11.2683 17.1449C11.3437 16.4666 11.3814 15.7884 11.4567 15.1101C11.4567 14.9594 11.5321 14.8087 11.6451 14.6956C13.4538 13.0753 15.2625 11.455 17.0712 9.83475C17.1843 9.7217 17.2973 9.64634 17.4104 9.5333C17.448 9.49561 17.5234 9.45793 17.4857 9.38257C17.448 9.30721 17.3727 9.30721 17.2973 9.30721C17.1466 9.30721 17.0335 9.38257 16.9205 9.45793C14.6973 10.8521 12.4741 12.2463 10.2509 13.6782C10.1379 13.7536 10.1002 13.8289 10.1379 13.9797C10.4017 14.8087 10.6654 15.6376 10.9669 16.4666C11.0422 16.655 11.1553 16.9188 11.2306 17.2203Z" fill="#FEFEFE"/>
</g>
</svg>
