<svg width="29" height="28" viewBox="0 0 29 28" fill="none" xmlns="http://www.w3.org/2000/svg">
<circle cx="14.5" cy="14" r="14" fill="#8962A7"/>
<path d="M9.99107 8.89478C9.78869 8.86533 9.58233 8.90606 9.40633 9.0102H9.39109C8.98275 9.24976 8.61471 9.55138 8.30111 9.90636C8.03978 10.208 7.89822 10.5129 7.8612 10.8069C7.83942 10.9811 7.85467 11.1575 7.90584 11.3241L7.92544 11.335C8.21944 12.1985 8.60273 13.0293 9.07095 13.8111C9.67469 14.9092 10.4176 15.9249 11.2814 16.8328L11.3075 16.8698L11.3489 16.9003L11.374 16.9297L11.4044 16.9558C12.3155 17.8222 13.3335 18.5687 14.4337 19.1772C15.6914 19.8621 16.4547 20.1855 16.9131 20.3205V20.327C17.0471 20.3684 17.169 20.3869 17.2921 20.3869C17.6825 20.3581 18.052 20.1994 18.3418 19.9361C18.6956 19.6225 18.9951 19.2534 19.2281 18.8429V18.8352C19.447 18.4215 19.3729 18.0316 19.0572 17.767C18.4229 17.2128 17.737 16.7206 17.009 16.297C16.5211 16.0324 16.0257 16.1925 15.8253 16.4604L15.3974 17.0005C15.1774 17.2683 14.7789 17.2313 14.7789 17.2313L14.768 17.2378C11.7943 16.4789 11.0005 13.4681 11.0005 13.4681C11.0005 13.4681 10.9634 13.0587 11.2389 12.8496L11.7747 12.4184C12.0316 12.2094 12.2102 11.715 11.9347 11.2272C11.514 10.4985 11.0227 9.8128 10.468 9.18007C10.347 9.03116 10.1773 8.92974 9.98889 8.89369L9.99107 8.89478ZM15.0163 7.58594C14.8719 7.58594 14.7334 7.6433 14.6313 7.7454C14.5292 7.8475 14.4718 7.98599 14.4718 8.13038C14.4718 8.27478 14.5292 8.41326 14.6313 8.51536C14.7334 8.61747 14.8719 8.67483 15.0163 8.67483C16.3926 8.67483 17.536 9.12454 18.4408 9.98694C18.9058 10.4584 19.2684 11.017 19.5058 11.629C19.7442 12.242 19.8531 12.8964 19.8248 13.552C19.8188 13.6964 19.8703 13.8372 19.9681 13.9436C20.0659 14.05 20.202 14.1132 20.3464 14.1193C20.4908 14.1253 20.6317 14.0738 20.7381 13.976C20.8445 13.8782 20.9076 13.7421 20.9137 13.5977C20.9475 12.7914 20.8136 11.9868 20.5206 11.2348C20.2263 10.4793 19.7801 9.79216 19.2096 9.216L19.1987 9.20512C18.0761 8.13256 16.6562 7.58594 15.0163 7.58594Z" fill="white"/>
<path d="M14.978 9.37609C14.8336 9.37609 14.6952 9.43345 14.5931 9.53555C14.491 9.63766 14.4336 9.77614 14.4336 9.92053C14.4336 10.0649 14.491 10.2034 14.5931 10.3055C14.6952 10.4076 14.8336 10.465 14.978 10.465H14.9965C15.9896 10.5358 16.7126 10.8668 17.219 11.4101C17.7384 11.9698 18.0073 12.6656 17.9866 13.5258C17.9833 13.6702 18.0375 13.81 18.1372 13.9145C18.237 14.0189 18.3742 14.0795 18.5186 14.0828C18.663 14.0861 18.8028 14.032 18.9072 13.9322C19.0117 13.8324 19.0722 13.6953 19.0755 13.5509C19.1017 12.4217 18.738 11.4472 18.0171 10.6697V10.6675C17.2799 9.87698 16.2684 9.45884 15.051 9.37718L15.0325 9.375L14.978 9.37609Z" fill="white"/>
<path d="M14.9575 11.2013C14.8847 11.1949 14.8113 11.2032 14.7417 11.2258C14.6721 11.2484 14.6078 11.2847 14.5526 11.3327C14.4974 11.3807 14.4524 11.4393 14.4203 11.505C14.3883 11.5708 14.3698 11.6423 14.366 11.7153C14.3622 11.7884 14.3731 11.8614 14.3982 11.9302C14.4232 11.9989 14.4619 12.0618 14.5118 12.1153C14.5617 12.1688 14.6219 12.2116 14.6888 12.2413C14.7556 12.271 14.8278 12.2869 14.9009 12.288C15.3561 12.312 15.6468 12.4492 15.8297 12.6332C16.0138 12.8183 16.151 13.1156 16.176 13.5805C16.1774 13.6536 16.1934 13.7257 16.2232 13.7924C16.253 13.8591 16.2959 13.9192 16.3494 13.9689C16.4029 14.0187 16.4659 14.0572 16.5346 14.0822C16.6032 14.1071 16.6762 14.118 16.7492 14.1141C16.8222 14.1102 16.8936 14.0917 16.9593 14.0596C17.025 14.0276 17.0835 13.9826 17.1314 13.9274C17.1793 13.8722 17.2157 13.808 17.2382 13.7385C17.2608 13.669 17.2691 13.5956 17.2627 13.5228C17.2279 12.8695 17.0232 12.2924 16.6039 11.8677C16.1825 11.4431 15.6087 11.2362 14.9575 11.2013Z" fill="white"/>
</svg>
