<svg width="28" height="28" viewBox="0 0 28 28" fill="none" xmlns="http://www.w3.org/2000/svg">
<g clip-path="url(#clip0_2886_45264)">
<path d="M14.0203 28.0406C21.7635 28.0406 28.0406 21.7635 28.0406 14.0203C28.0406 6.27711 21.7635 0 14.0203 0C6.27711 0 0 6.27711 0 14.0203C0 21.7635 6.27711 28.0406 14.0203 28.0406Z" fill="#30BF39"/>
<path fill-rule="evenodd" clip-rule="evenodd" d="M17.7185 15.5241C17.5153 15.4022 16.5806 14.9145 16.4181 14.8333C16.2555 14.752 16.093 14.7114 15.971 14.9145C15.8491 15.1177 15.4427 15.5241 15.3208 15.646C15.1989 15.768 15.077 15.768 14.9144 15.6867C14.7112 15.5648 14.1017 15.3616 13.3702 14.6707C12.8012 14.1424 12.4355 13.4922 12.3542 13.289C12.2323 13.0858 12.3542 13.0045 12.4355 12.8826C12.5168 12.8013 12.6387 12.6794 12.7606 12.5575C12.8419 12.4356 12.8825 12.3543 12.9638 12.2324C13.0451 12.1105 13.0044 11.9886 12.9638 11.9073C12.9231 11.826 12.5574 10.8507 12.4355 10.4443C12.2729 10.0379 12.1104 10.1192 12.0291 10.1192C11.9072 10.1192 11.7853 10.0786 11.6633 10.0786C11.5414 10.0786 11.3382 10.1192 11.135 10.3224C10.9319 10.5256 10.4442 10.9726 10.4035 11.9073C10.3629 12.8826 11.0131 13.8173 11.135 13.9392C11.2163 14.0611 12.3948 16.1337 14.3455 17.0278C16.2961 17.8812 16.2961 17.6373 16.6619 17.5967C17.0276 17.5967 17.8404 17.1497 18.003 16.7026C18.1655 16.2556 18.2062 15.8492 18.1655 15.768C18.0436 15.6867 17.9217 15.646 17.7185 15.5241ZM14.1423 20.1569C12.8419 20.1569 11.6633 19.7505 10.6474 19.1003L8.20907 19.8725L9.02184 17.5154C8.2497 16.4588 7.80268 15.199 7.80268 13.7767C7.80268 10.2817 10.6474 7.43704 14.1423 7.43704C17.6372 7.43704 20.4819 10.2817 20.4819 13.7767C20.5226 17.3122 17.6372 20.1569 14.1423 20.1569ZM14.1423 6.17725C9.91589 6.17725 6.50224 9.59089 6.50224 13.8173C6.50224 15.2803 6.90863 16.6214 7.59949 17.7592L6.21777 21.8637L10.4442 20.5227C11.5414 21.1323 12.8012 21.4574 14.1423 21.4574C18.3687 21.4574 21.7824 18.0437 21.7824 13.8173C21.7824 9.59089 18.3687 6.17725 14.1423 6.17725Z" fill="#F1F2F2"/>
</g>
<defs>
<clipPath id="clip0_2886_45264">
<rect width="28" height="28" fill="white"/>
</clipPath>
</defs>
</svg>
