<svg width="20" height="20" viewBox="0 0 20 20" fill="none" xmlns="http://www.w3.org/2000/svg">
<path fill-rule="evenodd" clip-rule="evenodd" d="M19.4138 7.55722H17.2173V5.36057C17.2173 5.03693 16.9549 4.77463 16.6314 4.77463H14.4348V5.9465H16.0455V14.0497H3.9541V12.439H2.78223V14.6355C2.78223 14.9591 3.04453 15.2214 3.36816 15.2214H5.56482V17.4181C5.56482 17.7415 5.82712 18.004 6.15076 18.004H19.4138C19.7375 18.004 19.9998 17.7415 19.9998 17.4181V8.14316C19.9998 7.81952 19.7375 7.55722 19.4138 7.55722ZM6.73669 16.8321H18.8279V8.7291H17.2173V14.6356C17.2173 14.9591 16.955 15.2216 16.6314 15.2216H6.73669V16.8321Z" fill="#81868F"/>
<path fill-rule="evenodd" clip-rule="evenodd" d="M14.435 4.77463V2.57812C14.435 2.25449 14.1727 1.99219 13.849 1.99219H0.585938C0.262299 1.99219 0 2.25449 0 2.57812V11.853C0 12.1767 0.262299 12.439 0.585938 12.439H2.78244H3.95432H13.849C14.1727 12.439 14.435 12.1767 14.435 11.853V5.9465V4.77463ZM13.2631 3.16406H1.17188V11.2671H13.2631V3.16406Z" fill="#81868F"/>
</svg>
